<svg xmlns="http://www.w3.org/2000/svg" width="210mm" height="297mm" viewBox="0 0 744.094 1052.362"><path d="M319.473 807.212c-20.74-4.068-54.835-15.655-73.908-25.12-42.541-21.104-91.493-66.79-116.297-108.543-13.281-22.355-29.85-65.315-33.91-87.918-1.888-10.53-1.774-10.645 10.98-10.645 12.436 0 13.015.513 16.378 13.92 22.973 91.713 95.587 165.766 185.812 189.497 35.555 9.35 91.224 9.335 126.579 0 90.176-23.897 161.569-94.123 184.476-181.465l5.749-21.92h12.339c7.791 0 12.338 1.538 12.338 4.162 0 12.14-15.315 56.399-28.046 81.049-27.27 52.8-66.671 92.032-120.272 119.76-41.595 21.514-81.598 30.916-129.646 30.462-20.933 0-44.59-1.657-52.572-3.196zm-10.049-269.888v-99.88h46.842c44.042 0 47.878.513 64.16 8.629 33.307 16.598 44.437 42.487 42.305 98.42-1.563 41.067-7.156 55.365-28.941 74.01-17.633 15.095-33.704 18.705-83.243 18.705h-41.123zm98.297 67.627c6.552-3.472 14.879-12.19 19.556-20.464 7.205-12.748 8.132-18.196 8.03-47.163-.112-38.1-5.995-54.26-24.028-66.273-9.575-6.376-15.402-7.41-41.754-7.41h-30.627v147.37h28.706c21.63 0 31.518-1.5 40.117-6.06zM93.283 493.732c0-10.554 12.564-54.264 21.228-73.852 24.559-55.535 76.487-109.905 131.054-137.222 36.038-18.039 69.24-26.044 115.35-27.803 37.042-1.421 47.86-.592 74.826 5.63 59.276 13.698 117.977 49.932 155.117 95.753 29.39 36.253 59.15 103.857 59.15 134.354 0 8.202-1.112 9.074-11.564 9.074-6.51 0-12.023-1.774-12.612-4.095-.576-2.249-3.511-14.326-6.523-26.832-20.775-86.273-93.978-158.843-183.803-182.211-30.99-8.064-84.696-9.591-114.62-3.275-45.727 9.678-88.66 32.348-123.494 65.208-38.242 36.077-65.727 83.847-74.955 130.267l-4.157 20.914h-12.498c-9.882 0-12.499-1.261-12.499-5.933z" stroke-width=".146"/></svg>