<svg xmlns="http://www.w3.org/2000/svg" width="210mm" height="297mm" viewBox="0 0 744.094 1052.362"><path d="M440.741 602.722c-13.01-2.741-23.671-10.87-28.907-22.037-2.566-5.475-2.94-7.687-2.94-17.379 0-9.88.337-11.796 3.067-17.353 3.785-7.707 12.165-15.714 20.568-19.653 5.564-2.609 7.73-2.977 17.48-2.977 10.338 0 11.657.265 18.545 3.65 8.609 4.238 15.343 11.186 19.609 20.23 2.463 5.222 2.87 7.557 2.804 16.103-.111 14.149-4.291 23.535-14.058 31.546-7.92 6.497-25.021 10.219-36.168 7.87zm21.737-14.6c9.878-4.697 16.887-17.633 15.407-28.434-2.09-15.242-15.327-25.8-30.611-24.413-14.647 1.325-25.57 12.85-25.598 27-.04 21.645 21.258 35.138 40.802 25.847zM71.82 562.64v-40.093l23.601.46c21.007.406 24.282.726 29.798 2.897 13.256 5.208 21.013 15.87 21.013 28.884 0 10.714-1.84 15.397-8.856 22.54-8.894 9.054-14.884 11.025-35.846 11.797l-16.382.599V602.729H71.82zm51.914 11.004c6.704-3.129 9.567-7.652 10.026-15.843.45-8.068-1.619-12.718-7.896-17.74l-4.265-3.41-18.225-.349-18.226-.349v40.059l12.494.335c16.066.432 20.33-.01 26.092-2.698zm35.826-10.893v-39.983h20.491c11.27 0 23.14.558 26.377 1.241 16.881 3.578 27.165 14.186 28.376 29.27 1.065 13.27-5.848 25.202-18.063 31.178-6.655 3.257-6.756 4.118-1.088 9.385 1.643 1.527 3.972 4.151 5.176 5.83l2.187 3.056h-16.27L201.2 596.2c-4.95-5.827-6.11-6.605-10.82-7.258-2.902-.405-7.775-.405-10.829.004l-5.553.74v4.763c0 7.74-.514 8.279-7.893 8.279h-6.545zm51.439 12.36c15.51-7.637 15.686-29.917.292-36.909-3.755-1.705-7.378-2.063-21.188-2.082h-16.66l.177 20.824c.098 11.454.222 20.996.276 21.206.056.209 7.224.209 15.928 0 13.95-.335 16.46-.698 21.175-3.015zm31.18 24.93c1.785-7.106 21.79-75.281 22.364-76.21.36-.586 6.293-1.06 13.181-1.06h12.525l11.292 39.149c6.21 21.531 11.29 39.524 11.288 39.982 0 .46-3.488.837-7.745.837h-7.74l-1.537-5.276-1.538-5.275-16.722-.307-16.724-.307-1.854 5.582-1.853 5.581h-7.806c-7.706 0-7.797 0-7.13-2.692zm50.187-20.976c.072-.14-2.462-9.706-5.638-21.312l-5.775-21.102-3.405-.334c-2.504-.252-3.57.195-4.025 1.665-1.08 3.501-10.661 40.847-10.668 41.588 0 .6 29.116.139 29.511-.503zm33.786-16.212v-40.085h16.382c30.067 0 42.5 5.29 51.185 21.638 2.677 5.04 2.95 6.685 2.954 17.77 0 9.388-.49 13.495-2.126 17.738-2.962 7.68-10.336 15.18-18.712 19.033-6.731 3.096-7.519 3.195-28.304 3.578l-21.379.39v-40.084zm40.534 26.418c2.61-.725 6.342-3.134 9.059-5.852 11.742-11.742 10.283-34.207-2.82-43.426-4.599-3.236-5.21-3.354-19.098-3.709l-14.347-.362v54.598l11.384-.01c6.26-.003 13.38-.558 15.822-1.24zM68.489 491.503c0-1.443 5.062-50.875 6.693-65.36.584-5.191 1.067-10.337 1.073-11.434 0-1.75.91-1.954 7.394-1.665l7.386.335 8.002 20.618c4.401 11.34 8.24 21.336 8.533 22.212.293.879 3.912-8.548 8.044-20.944l7.512-22.54 7.353.322 7.352.32 4.692 36.651c2.58 20.158 4.72 38.025 4.756 39.705.072 3.024 0 3.054-7.105 3.054h-7.168l-.586-3.61c-.325-1.984-1.626-12.855-2.898-24.155-2.196-19.531-3.205-23.92-4.879-21.212-.404.656-3.153 8.072-6.105 16.48l-5.367 15.283-4.974.335-4.974.335-6.538-16.14c-3.596-8.878-7.132-16.15-7.858-16.16-.727-.006-1.6 2.106-1.94 4.702-.66 5-3.96 40.772-3.96 42.897 0 .795-2.606 1.255-7.219 1.255-4.704 0-7.218-.446-7.218-1.283zm99.726-30.652c-.177-17.562-.16-35.554.04-39.983l.368-8.051H230.636v12.216H181.768v15.549H220.639v11.106H181.768v26.655H231.745v14.439h-63.208zm79.084-8.053v-39.981l18.047.015c11.501.01 20.061.544 23.6 1.497 12.59 3.363 21.016 10.05 25.967 20.607 2.56 5.46 2.91 7.603 2.91 17.866 0 10.234-.352 12.409-2.877 17.77-3.992 8.477-7.621 12.404-15.114 16.353-9.023 4.757-15.682 5.86-35.374 5.86h-17.16zm43.571 24.579c17.93-8.68 18.43-39.155.804-48.999-4.32-2.413-6.605-2.816-17.998-3.172l-13.05-.405v56.046l12.532-.475c10.073-.39 13.548-.976 17.713-2.988zm40.835-24.579v-39.981h13.328v79.965h-13.328zm39.604 7.497c5.153-17.866 10.366-35.859 11.584-39.982l2.216-7.496 13.003.009 13.003.009 11.029 38.584c6.066 21.222 11.25 39.234 11.522 40.025.383 1.116-1.35 1.367-7.585 1.116l-8.077-.335-1.497-5.144c-.95-3.264-2.25-5.341-3.556-5.683-1.133-.293-7.69-.363-14.572-.14-6.883.224-13.61.405-14.95.405-1.994 0-2.695 1.005-3.86 5.554l-1.423 5.553h-16.207zm41.49 8.33c0-.46-2.584-10.479-5.767-22.267l-5.787-21.434-3.29.335-3.288.335-5.36 20.547c-2.947 11.3-5.368 21.171-5.38 21.934 0 1.046 3.593 1.381 14.416 1.381 7.94 0 14.446-.377 14.457-.837zm36.632-15.827v-39.981h14.438v67.747H501.63v12.218h-52.2zm63.338 36.929c.566-1.68 5.558-18.798 11.095-38.039 5.536-19.241 10.329-35.859 10.65-36.928.513-1.708 2.166-1.943 13.591-1.943h13.006l10.967 38.038c6.032 20.921 11.198 38.914 11.482 39.982.455 1.716-.4 1.945-7.3 1.945h-7.814l-1.845-5.553c-2.11-6.355-.378-5.856-20.854-6.005l-14.192-.14-1.838 5.831-1.838 5.83H511.74zm44.822-41.649c-3.271-11.759-5.955-21.753-5.965-22.212 0-.46-1.479-.837-3.264-.837-2.685 0-3.444.628-4.397 3.61-1.225 3.834-10.127 39.185-10.127 40.21 0 .335 6.683.6 14.85.6h14.85zm40.663 4.72v-39.981h23.6c20.869 0 24.145.264 28.298 2.156 8.75 3.973 12.352 14.507 8.183 23.935-2.75 6.217-2.733 6.092-.862 6.092 2.478 0 10.952 7.984 12.561 11.835 2.203 5.274 1.893 16.67-.603 22.168-1.142 2.515-3.857 5.93-6.034 7.591-7.068 5.391-12.052 6.163-39.774 6.163h-25.368zm51.295 26.616c9.34-2.593 13.162-14.661 6.973-22.017-3.83-4.551-10.847-5.853-29.453-5.465l-14.933.307-.31 14.161-.311 14.16 16.97-.004c9.333-.004 18.812-.516 21.064-1.144zm-4.25-40.294c2.323-1.522 2.933-2.804 2.933-6.167 0-7.507-2.132-8.418-20.66-8.835l-15.99-.363v8.228c0 4.523.27 8.497.6 8.828.334.335 7.258.516 15.393.418 11.928-.153 15.358-.558 17.723-2.11z"/></svg>