<svg xmlns="http://www.w3.org/2000/svg" viewBox="0 0 153 167" height="178.133" width="163.2"><path fill="#d1d1d1" d="M0 0h153v167H0z"/><path d="M38.843 131c6.34-20.66 19.702-34.896 35.158-34.896 15.458 0 28.82 14.238 35.157 34.896H38.843zM99.711 59.72a6.167 6.167 0 0 0-8.841-5.557c-.11-.152-.223-.305-.336-.452a6.169 6.169 0 1 0-9.936-7.1c-.165-.057-.336-.11-.503-.162a6.166 6.166 0 1 0-12.193.003c-.167.051-.335.104-.501.161a6.169 6.169 0 0 0-11.647 2.834 6.13 6.13 0 0 0 1.641 4.171c-.133.16-.247.333-.375.498a6.14 6.14 0 0 0-2.561-.562 6.168 6.168 0 0 0-6.17 6.165c0 2.759 1.984 5.175 4.487 5.962-.196 1.168-.36 2.348-.36 3.572 0 11.922 9.663 21.58 21.585 21.58 11.917 0 21.58-9.658 21.58-21.58 0-1.284-.163-2.525-.377-3.748 1.328-.936 4.507-3.431 4.507-5.785z" fill="#ededed"/></svg>