<svg xmlns="http://www.w3.org/2000/svg" width="210mm" height="297mm" viewBox="0 0 210 297"><path d="M28.015 217.779c-2.459-1.274-3.413-4.728-2.402-8.693.481-1.885 2.324-7.818 4.907-15.8 1.034-3.194 2.256-7.114 2.715-8.71 1.04-3.61 1.633-4.92 2.459-5.423.874-.533 1.836-.496 2.426.093 1.382 1.382 1.243 3.143-1.724 21.946-.339 2.146-.697 5.13-.797 6.631-.215 3.249-1.107 7.113-1.968 8.524-.98 1.605-3.861 2.34-5.616 1.432zm142.836-13.565c-1.011-.251-2.007-.971-2.353-1.701-.542-1.142-.406-2.255.602-4.955.421-1.125.611-1.387 1.217-1.674.882-.42 1.975-.307 2.964.304.991.613 1.286 1.31 1.434 3.392.103 1.454.06 1.979-.22 2.713-.58 1.518-2.08 2.309-3.644 1.92zm-126.218-5.866c0-.251.766-5.05 1.702-10.663.935-5.614 1.7-10.28 1.7-10.37 0-.089.966-.136 2.146-.105l2.145.057 2.53 6.76c1.391 3.719 2.587 6.818 2.656 6.887.07.07.192-.044.272-.253.08-.208 1.239-3.307 2.573-6.887l2.427-6.507 2.137-.057c1.175-.031 2.137.02 2.137.115s.176 1.156.39 2.36c.725 4.058 3.014 18.243 3.014 18.677 0 .411-.088.43-1.998.43-1.908 0-2.004-.02-2.105-.45-.097-.411-2.096-13.977-2.11-14.32-.004-.081-.09-.006-.19.168-.19.322-4.754 12.489-5.197 13.851-.241.74-.26.75-1.285.75h-1.041l-1.971-5.355c-2.83-7.692-3.606-9.622-3.682-9.161-.036.22-.539 3.554-1.117 7.409l-1.052 7.008-2.041.057c-2.01.056-2.041.05-2.04-.4zm27.685 0c.056-.251 1.606-4.557 3.443-9.568 1.837-5.01 3.537-9.651 3.778-10.312l.437-1.201h4.98l1.87 5.106c4.625 12.63 5.862 16.057 5.862 16.238 0 .117-.885.172-2.231.137l-2.232-.056-.722-2.103-.722-2.102-4.31-.054-4.311-.054-.708 2.157-.709 2.156-2.264.057-2.264.056.103-.457zm13.162-7.65c0-.248-2.318-7.174-2.853-8.525-.173-.437-.388.064-1.676 3.9-.813 2.422-1.478 4.516-1.478 4.656 0 .194.712.254 3.003.254 2.46 0 3.004-.052 3.004-.284zm9.41-2.719v-10.84l5.557.074c5.08.068 5.655.111 6.704.503 4.062 1.515 6.225 4.983 6.215 9.963-.01 5.195-2.203 8.915-6.261 10.625-.798.337-1.55.388-6.558.448l-5.656.068zm10.189 7.097c1.453-.431 2.826-1.793 3.422-3.392.933-2.503.741-5.933-.457-8.19-1.18-2.225-2.778-2.923-6.682-2.923h-2.467v14.817h2.567c1.74 0 2.905-.1 3.617-.312zm12.037-7.097v-10.812h4.296c2.414 0 4.76.098 5.356.225 3.056.647 4.84 2.479 5.097 5.232.234 2.497-.846 4.538-3.062 5.788l-1.073.606 3.108 4.582c1.709 2.52 3.16 4.719 3.224 4.887.101.263-.221.304-2.357.298l-2.474-.007-1.19-1.945a241.73 241.73 0 0 0-2.648-4.198l-1.458-2.253h-2.814v8.41h-4.005zm9.078-1.462c1-.764 1.412-1.619 1.4-2.908-.011-1.149-.348-1.781-1.343-2.525-.467-.35-.907-.424-2.841-.48l-2.289-.068v6.678l2.169-.068c2.015-.063 2.22-.108 2.904-.629zm10.746 1.462v-10.812h4.204v21.625h-4.204zm9.01 0v-10.812l5.056.003c6.855.004 8.323.381 10.703 2.753 3.97 3.955 3.8 12.152-.335 16.291-2.284 2.286-3.445 2.578-10.26 2.578h-5.164zm10.913 6.866c1.097-.582 2.192-1.763 2.743-2.961.41-.893.46-1.303.46-3.805 0-2.673-.027-2.861-.583-4.066-1.223-2.649-2.939-3.49-6.937-3.399l-2.491.057-.053 7.107c-.029 3.909-.006 7.23.052 7.38.084.22.692.257 3.056.192 2.523-.069 3.068-.142 3.753-.505zm15.339-1.973c-1.094-.92-1.29-2.739-.64-5.922.415-2.024.727-4.933.922-8.582.162-3.013.388-4.805 1.114-8.81.329-1.817.679-4.567.778-6.112.215-3.372.612-4.618 1.948-6.103 1.249-1.389 2.21-1.85 4.066-1.947 1.964-.104 2.524.23 3.41 2.03 1.31 2.66 1.037 4.9-1.192 9.79-3.052 6.694-4.463 11.41-5.82 19.462-.683 4.044-1.227 5.47-2.388 6.252-.877.59-1.445.576-2.198-.058zM36.485 175.334c-.57-.128-1.042-.42-1.476-.915-.61-.695-.634-.784-.542-2.068.19-2.66 1.18-3.592 3.893-3.662 1.461-.038 2.208.393 2.637 1.522.232.61.226.863-.044 1.793-.376 1.292-1.294 2.624-2.184 3.166-.7.427-1.01.45-2.284.164zm64.713-18.799c-10.241-.598-16.4-4.056-18.302-10.275-.405-1.324-.42-1.772-.42-12.632 0-6.193.06-15.464.133-20.603l.133-9.344h43.934l.145 20.274c.163 22.688.215 21.667-1.248 24.454-1.772 3.375-5.412 5.867-10.451 7.156-3.29.842-9.144 1.25-13.924.97zm6.737-7.01c2.803-.281 5.169-.864 6.904-1.698 1.533-.738 3.504-2.38 3.994-3.328l.296-.571h-14.422c-7.932 0-14.42.068-14.417.15.01.31 1.325 1.853 2.098 2.462 3.144 2.482 9.13 3.632 15.547 2.986zm-21.617-4.818c.198-.567.277-.613.89-.513.736.12.922-.212.374-.667-.165-.137-.3-.362-.3-.5s.135-.364.3-.5c.48-.399.352-.601-.38-.601-.578 0-.714-.092-.892-.601-.115-.33-.263-.6-.33-.6-.066 0-.215.27-.33.6-.178.509-.314.6-.89.6-.733 0-.862.203-.382.601.165.137.3.363.3.5 0 .14-.135.364-.3.501-.547.455-.362.786.374.667.613-.1.693-.054.89.513.12.342.272.623.338.623.067 0 .219-.28.338-.623zm37.385-.005c.203-.58.272-.618.934-.51.394.063.684.052.646-.025l-.342-.682c-.237-.47-.229-.61.06-1.051l.334-.509h-.716c-.615 0-.745-.084-.925-.6-.266-.763-.424-.758-.718.022-.213.564-.304.616-.945.541-.39-.045-.71-.047-.71-.004 0 .044.18.33.398.638.396.556.396.559 0 1.063-.537.683-.51.736.31.603.652-.106.727-.065.945.513.299.79.454.79.73 0zm-21.357-2.36l.654-.584v-17.52l-1.402-.273c-2.706-.528-5.378-2.246-6.206-3.992-.848-1.786-.548-3.357.955-5 2.91-3.186 9.414-4.025 14.056-1.814 1.78.848 2.58 1.526 3.32 2.814 1.911 3.333-.963 7.038-6.218 8.013l-1.301.241-.058 2.067c-.052 1.889-.022 2.092.35 2.353.225.157.408.506.408.775 0 .27.203.692.451.94l.45.45.108-1.401c.086-1.123.036-1.522-.25-2.003-.438-.737-.456-1.532-.053-2.312.37-.717.683-.744 1.278-.11.248.263.714.533 1.036.6.321.066.877.176 1.235.245 1.34.256 1.727 1.252.969 2.498l-.383.63.975 2.78c.537 1.53 1.34 3.393 1.785 4.142.654 1.101.81 1.553.81 2.357 0 .585-.132 1.182-.32 1.45-.299.427-.278.537.351 1.847l.67 1.393 1.801-.051 1.802-.05.24-.701c.282-.828.329-9.137.128-22.794l-.133-9.044H89.526l-.135 3.054c-.074 1.68-.106 8.874-.07 15.988.051 10.598.113 12.994.338 13.265.244.295.93.331 6.154.331h5.88l.653-.584zm7.849.106l.705-.479-.596-.75c-.341-.43-.596-.99-.596-1.312 0-.309-.1-.623-.223-.699-.329-.203-.918-1.659-1.083-2.676-.103-.64-.43-1.247-1.17-2.17l-1.028-1.283-.055 4.07c-.059 4.41.04 4.992.933 5.477.845.46 2.296.376 3.113-.178zm-23.885-15.94c.178-.51.314-.601.891-.601.733 0 .86-.202.381-.6-.165-.138-.3-.363-.3-.501 0-.139.135-.364.3-.5.48-.4.352-.602-.38-.602-.578 0-.714-.092-.892-.6-.115-.33-.263-.601-.33-.601-.066 0-.215.27-.33.6-.178.51-.314.601-.89.601-.733 0-.862.203-.382.601.165.137.3.362.3.5 0 .139-.135.364-.3.501-.48.399-.351.6.381.6.577 0 .713.093.89.602.116.33.265.6.331.6.067 0 .215-.27.33-.6zm37.384 0c.18-.518.31-.601.932-.601h.723l-.346-.585c-.323-.547-.324-.617-.011-1.094.437-.667.445-.656-.37-.561-.637.074-.723.023-.92-.541-.274-.785-.43-.784-.726 0-.213.564-.304.616-.945.541-.39-.045-.71-.047-.71-.004s.18.306.398.584c.397.505.397.506-.014 1.083l-.411.577h.732c.63 0 .763.085.958.601.125.33.289.6.364.6.075 0 .23-.27.346-.6zm-36.476-18.422c.76 0 .78-.038.347-.7-.29-.442-.29-.523 0-.938.457-.652.4-.753-.356-.63-.622.1-.692.057-.912-.563-.228-.643-.251-.656-.528-.284-.16.214-.29.518-.29.677 0 .217-.171.26-.7.174-.784-.127-.843-.03-.383.626.29.415.29.496 0 .939-.434.662-.415.7.363.7.587 0 .714.09.918.65l.238.65.319-.65c.265-.54.433-.65.984-.65zm17.823.6c.195-.516.33-.6.959-.6h.732l-.395-.555c-.394-.552-.394-.557.003-1.1l.398-.547h-.735c-.633 0-.767-.084-.962-.601-.125-.33-.288-.6-.363-.6-.076 0-.231.27-.347.6-.18.516-.31.6-.925.6h-.716l.339.517c.318.486.318.552-.007 1.102l-.345.584h.722c.623 0 .752.083.932.6.115.331.271.602.346.602.075 0 .24-.27.364-.601zm18.653 0c.18-.517.31-.6.932-.6h.723l-.346-.584c-.323-.547-.324-.618-.011-1.095.45-.687.435-.715-.334-.59-.6.097-.694.046-.925-.513-.324-.782-.462-.78-.759.007-.218.578-.293.619-.945.513-.82-.133-.847-.08-.31.602.397.505.397.507-.014 1.083l-.411.578h.732c.63 0 .763.084.958.6.125.33.289.601.364.601.075 0 .23-.27.346-.6zm-41.018-5.864c-.635-.32-.798-1.305-.279-1.684.287-.21 4.64-.26 22.429-.26 20.112 0 22.102.029 22.399.325.463.464.307 1.315-.297 1.62-.393.197-5.147.251-22.126.251s-21.733-.054-22.126-.252zm5.006-2.745c-.22-.22-.4-.567-.4-.77 0-.813 1.382-1.371 1.962-.792.398.398.285 1.307-.205 1.65-.588.413-.875.394-1.357-.088zm4.656-.133c-.799-.276-1.452-.566-1.452-.645 0-.184 2.592-1.024 3.16-1.024.236 0 .86.166 1.388.369.527.202 1.138.435 1.359.517.315.117.062.273-1.19.732-.875.322-1.641.577-1.702.568-.062-.009-.765-.241-1.563-.517zm6.402.222c-.49-.344-.604-1.253-.205-1.651.34-.34 1.275-.298 1.647.074.429.429.396 1.007-.085 1.488-.482.482-.77.5-1.357.089zm10.906.171c-.199-.052-.449-.324-.556-.604-.447-1.177 1.186-2.044 1.908-1.013.412.588.393.875-.089 1.357-.4.4-.58.437-1.263.26zm4.285-.44c-.82-.309-1.383-.62-1.257-.698.397-.246 2.525-.914 2.926-.92.528-.006 3.118.84 3.118 1.02 0 .126-2.942 1.197-3.204 1.167-.055-.006-.767-.263-1.583-.57zm6.434.269c-.49-.344-.603-1.253-.205-1.651.34-.34 1.275-.298 1.648.074.428.429.395 1.007-.086 1.488-.482.482-.77.5-1.357.089zm-38.158-.255c-.433-.479-.418-.749.069-1.236.562-.562 3.173-.587 3.673-.034.416.46.422.916.017 1.321-.483.484-3.31.445-3.76-.051zm19.531.126c-.336-.337-.299-1.074.075-1.448.253-.253.817-.314 2.903-.314 2.322 0 2.63.041 2.99.4.482.482.49.584.088 1.157-.296.423-.447.445-3.063.445-1.874 0-2.829-.077-2.992-.24zm21.9-.075c-.418-.418-.398-.95.052-1.356.569-.515 3.103-.466 3.638.07.482.481.49.583.09 1.156-.278.396-.487.445-1.889.445-1.166 0-1.658-.082-1.89-.315zm-41.117-2.4c-.485-.339-.587-1.067-.205-1.45.349-.349 44.624-.349 44.972 0 .383.383.28 1.111-.204 1.45-.397.278-2.842.312-22.282.312s-21.885-.034-22.281-.311zm7.763-2.47a8.92 8.92 0 0 1-1.11-.474c-.561-.291-.694-.285-1.8.09-2.126.72-3.964.18-4.87-1.434-.388-.688-.469-1.164-.522-3.063-.064-2.315-.39-3.669-1.063-4.411-.451-.5-1.32-.94-1.849-.94-.71 0-.256-.348.778-.596 1.334-.32 2.33-.028 3.302.968.518.53.885.75 1.143.682.208-.054.611-.04.895.03l.516.13-.513.61c-.282.334-.512.692-.512.794 0 .335.732.192 1.1-.216.515-.568.702-.499.702.262 0 .581.098.706.812 1.02 1 .442.981.878-.061 1.387-.65.318-.751.46-.751 1.052 0 .376-.051.684-.114.684-.062 0-.4-.215-.75-.477-.351-.263-.84-.54-1.089-.614-.367-.112-.45-.06-.45.283 0 .669.53 1.757.971 1.993.616.33 1.323.26 1.892-.188.432-.34.496-.517.4-1.106-.148-.913.345-1.493 1.269-1.493.846 0 1.372.702 1.18 1.575-.25 1.14 1.359 1.883 2.438 1.128.476-.334.958-1.56.788-2.003-.145-.376-1.1-.057-1.816.607l-.513.475-.126-.786c-.104-.65-.25-.848-.851-1.141-.954-.467-.917-.867.125-1.351.747-.348.85-.475.85-1.052 0-.36.09-.656.2-.656.111 0 .201.088.201.196 0 .276 1.156.84 1.287.628.06-.096-.108-.495-.372-.885-.52-.766-.413-.94.582-.94.312 0 .499-.146.575-.45a2.94 2.94 0 0 1 .404-.849c.282-.384.304-.385.692-.035.22.2.455.581.522.848.087.346.261.486.603.486 1.019 0 1.158.19.613.838-.276.327-.5.714-.5.86 0 .36.68.168 1.119-.316.495-.547.682-.472.682.275 0 .577.104.704.851 1.052.468.217.851.53.851.695 0 .165-.383.478-.85.696-.792.367-.852.451-.852 1.186v.791l-.45-.41c-.56-.51-1.228-.861-1.639-.861-.662 0-.14 1.996.597 2.278.622.24 1.442.122 1.953-.28.431-.34.496-.517.4-1.106-.148-.913.344-1.493 1.268-1.493.828 0 1.389.721 1.187 1.527-.284 1.13 1.36 1.926 2.431 1.176.482-.338.958-1.561.784-2.015-.1-.26-.205-.258-.862.016-.412.172-.894.445-1.072.606-.401.362-.592.193-.592-.526 0-.438-.154-.626-.75-.918-.951-.464-.953-.869-.008-1.33.574-.282.773-.517.87-1.033l.125-.669.706.479c.388.263.785.43.882.37.195-.12-.294-1.183-.644-1.4-.32-.197.188-.48.871-.485.388-.002.552-.106.555-.353.002-.193.176-.573.385-.846.369-.48.394-.484.779-.135.218.198.452.578.52.845.086.346.26.486.602.486 1.02 0 1.158.19.613.838-.902 1.071-.435 1.474.616.532.49-.44.685-.309.685.456 0 .47.145.622.912.962.802.355.887.45.702.794-.115.215-.525.495-.911.623-.621.205-.703.31-.703.917 0 .377-.04.685-.09.685-.05 0-.424-.225-.83-.5-.974-.662-1.482-.659-1.482.01 0 .653.49 1.607.91 1.767.657.253 1.574.118 2.014-.296.353-.331.425-.565.337-1.106-.136-.839.355-1.477 1.137-1.477.925 0 1.313.452 1.274 1.485-.028.734.05.977.395 1.218.446.312 1.272.392 1.833.176.444-.17.91-1.128.91-1.87v-.614l-.744.311c-.409.17-.889.442-1.067.603-.484.438-.592.364-.592-.41 0-.633-.079-.733-.81-1.026-1.002-.4-.983-.832.06-1.34.52-.256.751-.5.753-.802.004-.586.303-1.05.485-.754.076.122.403.36.726.527.55.284.588.28.588-.074 0-.208-.227-.606-.505-.883-.429-.43-.456-.524-.183-.628a2.68 2.68 0 0 1 .788-.124c.342 0 .567-.202.835-.75.202-.414.502-.751.667-.751.165 0 .466.337.667.75.268.55.493.751.835.751.257 0 .612.056.789.124.273.104.245.198-.184.628-.596.595-.694 1.305-.155 1.114.193-.068.542-.295.776-.505.383-.344.437-.35.55-.054.07.18.126.502.126.714 0 .263.255.487.801.706.555.222.801.441.801.715 0 .275-.244.49-.801.71-.708.278-.8.39-.8.973 0 .362-.091.714-.201.782-.11.068-.2.027-.2-.091 0-.278-1.196-1.008-1.652-1.01-.268 0-.35.167-.35.71 0 1.43 1.7 2.225 2.821 1.318.365-.296.453-.546.416-1.18-.058-.988.341-1.449 1.257-1.449.776 0 1.152.374 1.157 1.147.006 1.044.146 1.388.66 1.622.756.344 1.211.29 1.799-.216.358-.308.56-.726.64-1.316l.116-.865-.772.322c-.424.178-.917.455-1.095.616-.41.371-.592.191-.594-.592-.002-.532-.115-.665-.82-.961-.962-.404-.942-.7.084-1.259.615-.334.737-.507.737-1.05 0-.762.068-.785.747-.251 1.028.809 1.5.191.535-.702l-.52-.482.524-.131c.288-.073.707-.084.931-.025.296.077.646-.132 1.271-.756.991-.991 1.984-1.268 3.29-.916.932.251 1.28.609.593.61-.753.001-1.716.724-2.19 1.643-.365.705-.467 1.332-.572 3.496-.118 2.433-.171 2.701-.68 3.472-1.03 1.556-3.079 1.985-5.215 1.093-.705-.295-.779-.288-1.474.142-1.005.622-2.637.628-3.804.014l-.858-.45-.844.437c-1.108.575-2.573.58-3.666.012l-.82-.426-.966.49c-1.234.624-2.162.618-3.448-.023l-1.027-.512-.774.395c-1.345.686-2.07.72-3.45.162-1.241-.501-1.244-.501-1.892-.119-.357.21-1.068.44-1.58.51-.766.106-1.122.034-2.026-.408l-1.096-.537-.793.405c-.938.478-2.133.662-2.834.437z"/></svg>