<svg xmlns="http://www.w3.org/2000/svg" width="185" height="188"><defs><filter id="f" color-interpolation-filters="sRGB"><feColorMatrix values="4.01604 8.29 0.072 -0.1 0 4.01604 8.29 0.072 -0.1 0 4.01604 8.29 0.072 -0.1 0 0 0 0 1 0"/></filter><filter id="e" color-interpolation-filters="sRGB"><feColorMatrix values="-0.90508 5.29 0.072 -0.1 0 -0.90508 5.29 0.072 -0.1 0 -0.90508 5.29 0.072 -0.1 0 0 0 0 1 0"/></filter><filter id="b" color-interpolation-filters="sRGB"><feColorMatrix values="4.01604 8.29 0.072 -0.1 0 4.01604 8.29 0.072 -0.1 0 4.01604 8.29 0.072 -0.1 0 0 0 0 1 0"/></filter><filter id="a" color-interpolation-filters="sRGB"><feColorMatrix values="-0.90508 5.29 0.072 -0.1 0 -0.90508 5.29 0.072 -0.1 0 -0.90508 5.29 0.072 -0.1 0 0 0 0 1 0"/></filter><filter id="d" color-interpolation-filters="sRGB"><feColorMatrix values="4.01604 8.29 0.072 -0.1 0 4.01604 8.29 0.072 -0.1 0 4.01604 8.29 0.072 -0.1 0 0 0 0 1 0"/></filter><filter id="c" color-interpolation-filters="sRGB"><feColorMatrix values="-0.90508 5.29 0.072 -0.1 0 -0.90508 5.29 0.072 -0.1 0 -0.90508 5.29 0.072 -0.1 0 0 0 0 1 0"/></filter></defs><path style="isolation:auto;mix-blend-mode:normal" color="#000" overflow="visible" fill="#2b0000" fill-opacity=".949" enable-background="accumulate" d="M36.239-13.172h.177v.884h-.177z"/><path d="M77.605 22.472c-.243-.178-.304-.763-.253-2.42.064-2.093.092-2.199.662-2.471.632-.302.647-.347 2.661-7.913 1.482-5.563 2.578-9.273 2.81-9.504C83.76-.111 93.91-.13 94.17.144c.141.148 2.058 6.902 3.359 11.832.591 2.243 1.433 5.069 1.58 5.307.079.127.29.231.468.231.178 0 .416.182.529.404.191.378.186 4.375-.006 4.568-.22.22-11.049.177-11.27-.044-.14-.14-.21-1.17-.171-2.523l.066-2.286.693-.125c.57-.104.681-.226.631-.694-.116-1.1-.195-1.146-1.984-1.146-1.83 0-1.993.106-1.993 1.288 0 .44.12.558.568.558.326 0 .671.19.808.447.276.515.319 3.917.055 4.332-.23.363-9.422.529-9.9.18zM88.943 12c.142-.23-.508-3.637-.794-4.161-.118-.216-.276.144-.456 1.038-.152.753-.359 1.754-.46 2.223-.1.47-.126.911-.057.981.209.209 1.628.143 1.767-.081zm29.096 10.667c-.759-.056-1.458-.225-1.554-.376-.263-.413-.218-3.816.056-4.33.132-.245.394-.446.582-.446.472 0 .586-.326 2.192-6.23C121.97 1.522 122.308.34 122.492.156c.255-.255 10.426-.272 10.68-.018.113.113.863 2.66 1.257 4.003 1.183 4.03 2.973 10.814 3.324 12.152.18.692.435 1.058.882 1.272.608.29.63.37.687 2.375.033 1.14-.037 2.223-.155 2.405-.177.274-1.152.323-5.682.285-3.007-.025-5.56-.102-5.672-.171-.316-.196-.25-4.343.074-4.668.152-.152.516-.277.808-.277.58 0 .659-.324.305-1.254-.212-.557-.319-.592-1.838-.592-1.358 0-1.65.07-1.851.447-.423.79-.296 1.4.291 1.4.292 0 .656.124.808.276.314.315.395 4.47.09 4.658-.27.167-6.836.335-8.461.217zm10.034-10.748c.002-.645-.8-4.096-.953-4.096-.172 0-.59 1.735-.822 3.404l-.135.98h.954c.61 0 .955-.104.956-.288zM55.33 22.303c-.177-.517-.014-4.356.194-4.553.11-.105.41-.228.663-.274.448-.08.462-.265.462-6.185V5.189l-.57-.134c-.667-.158-.926-1.027-.894-3.002.037-2.29-.719-2.077 7.343-2.077 6.324 0 7.274.049 8.515.435 2.875.895 4.61 2.392 5.881 5.075.692 1.46.728 1.68.801 4.875.057 2.483-.018 3.757-.293 4.939-.864 3.718-3.07 5.988-6.748 6.946-1.776.463-15.198.512-15.354.057zm12.46-5.148c.505-.354.512-.439.512-5.808 0-6.31.005-6.294-1.881-6.294h-1.119l-.024 3.865c-.013 2.126-.055 4.645-.094 5.596-.039.952-.015 2.017.053 2.366.11.57.22.634 1.081.634.527 0 1.19-.161 1.472-.359zm34.254 2.96l.065-2.485.866-.072.865-.071V5.022l-.634.073c-.541.063-.645.193-.706.881-.1 1.152-.544 1.385-2.642 1.385-2.796 0-2.71.12-2.71-3.802 0-1.944.095-3.383.228-3.466.126-.078 5.026-.137 10.889-.131 8.314.007 10.7.074 10.845.3.101.16.186 1.66.188 3.332.004 3.811.037 3.767-2.766 3.767-2.337 0-2.769-.237-2.769-1.517 0-.726-.057-.79-.696-.79h-.696l.061 6.172.062 6.173.733.071c1.114.108 1.254.444 1.18 2.848l-.067 2.158-6.18.061-6.182.062zM77.605 85.724c-.243-.177-.304-.762-.253-2.42.064-2.093.092-2.198.662-2.47.632-.303.647-.347 2.661-7.913 1.482-5.564 2.578-9.273 2.81-9.505.275-.275 10.425-.293 10.686-.019.141.148 2.058 6.901 3.359 11.831.591 2.243 1.433 5.069 1.58 5.307.079.128.29.232.468.232.178 0 .416.181.529.404.191.377.186 4.375-.006 4.567-.22.22-11.049.178-11.27-.044-.14-.14-.21-1.17-.171-2.523l.066-2.285.693-.126c.57-.104.681-.225.631-.694-.116-1.1-.195-1.145-1.984-1.145-1.83 0-1.993.106-1.993 1.288 0 .439.12.558.568.558.326 0 .671.19.808.446.276.515.319 3.917.055 4.332-.23.363-9.422.529-9.9.18zm11.338-10.473c.142-.23-.508-3.637-.794-4.16-.118-.216-.276.144-.456 1.038-.152.753-.359 1.753-.46 2.223-.1.47-.126.91-.057.98.209.209 1.628.144 1.767-.081zm29.096 10.667c-.759-.055-1.458-.225-1.554-.376-.263-.413-.218-3.816.056-4.329.132-.245.394-.446.582-.446.472 0 .586-.327 2.192-6.231 2.655-9.762 2.993-10.944 3.177-11.128.255-.255 10.426-.272 10.68-.018.113.113.863 2.661 1.257 4.003 1.183 4.03 2.973 10.815 3.324 12.153.18.691.435 1.057.882 1.271.608.29.63.37.687 2.375.033 1.141-.037 2.223-.155 2.405-.177.274-1.152.323-5.682.285-3.007-.025-5.56-.102-5.672-.17-.316-.196-.25-4.344.074-4.668.152-.153.516-.277.808-.277.58 0 .659-.325.305-1.255-.212-.557-.319-.591-1.838-.591-1.358 0-1.65.07-1.851.446-.423.79-.296 1.4.291 1.4.292 0 .656.124.808.277.314.314.395 4.469.09 4.657-.27.167-6.836.335-8.461.217zm10.034-10.747c.002-.646-.8-4.096-.953-4.096-.172 0-.59 1.734-.822 3.403l-.135.981h.954c.61 0 .955-.104.956-.288zM55.33 85.555c-.177-.517-.014-4.356.194-4.552.11-.106.41-.229.663-.275.448-.08.462-.265.462-6.185v-6.101l-.57-.135c-.667-.157-.926-1.027-.894-3.002.037-2.29-.719-2.076 7.343-2.076 6.324 0 7.274.048 8.515.434 2.875.895 4.61 2.393 5.881 5.075.692 1.46.728 1.68.801 4.875.057 2.483-.018 3.757-.293 4.94-.864 3.717-3.07 5.987-6.748 6.945-1.776.463-15.198.513-15.354.057zm12.46-5.148c.505-.354.512-.439.512-5.808 0-6.31.005-6.294-1.881-6.294h-1.119l-.024 3.866c-.013 2.126-.055 4.644-.094 5.596s-.015 2.016.053 2.365c.11.57.22.635 1.081.635.527 0 1.19-.162 1.472-.36zm34.254 2.96l.065-2.485.866-.072.865-.071V68.275l-.634.073c-.541.062-.645.192-.706.88-.1 1.153-.544 1.385-2.642 1.385-2.796 0-2.71.12-2.71-3.802 0-1.944.095-3.383.228-3.466.126-.077 5.026-.136 10.889-.131 8.314.008 10.7.074 10.845.3.101.16.186 1.66.188 3.333.004 3.81.037 3.766-2.766 3.766-2.337 0-2.769-.237-2.769-1.516 0-.727-.057-.792-.696-.792h-.696l.061 6.173.062 6.173.733.071c1.114.108 1.254.445 1.18 2.848l-.067 2.158-6.18.062-6.182.061z" fill="#f12403"/><path d="M372.817 471.742c0-1.893.45-3.72 1-4.06 1.368-.845 1.298-20.801-.078-22.177-.593-.593-.93-2.37-.75-3.95l.328-2.872 8.743-.289c4.81-.159 9.554.145 10.544.675.99.53 2.6 3.5 3.577 6.599.98 3.11 2.277 5.468 2.894 5.262.614-.205 1.97-2.932 3.014-6.062 2.205-6.616 2.844-6.92 13.635-6.484 8.912.36 10.688 1.922 7.843 6.9-2.364 4.135-2.487 19.402-.182 22.692.862 1.23 1.424 3.243 1.25 4.472-.3 2.113-.782 2.235-8.818 2.235s-8.517-.122-8.817-2.235c-.175-1.229.387-3.241 1.25-4.472 1.677-2.395 2.105-10.396.677-12.65-1.094-1.726-1.28-1.368-4.61 8.857-3.216 9.88-3.935 11-7.063 11-2.852 0-3.133-.445-6.923-11-1.68-4.675-3.494-8.5-4.034-8.5-1.718 0-1.704 9.165.019 12.498.882 1.706 1.326 3.98.985 5.052-.535 1.686-1.556 1.95-7.551 1.95h-6.933zm54.706 2.814c-1.176-1.177-.793-5.307.711-7.658.78-1.218 2.873-7.615 4.652-14.215 1.778-6.6 3.67-12.563 4.205-13.25 1.382-1.779 14.162-1.671 15.967.134.761.761 2.852 6.902 4.645 13.647 1.793 6.744 3.937 13.295 4.764 14.558.828 1.262 1.357 3.334 1.177 4.603-.312 2.204-.71 2.308-8.827 2.308-8.21 0-8.511-.082-8.839-2.4-.186-1.319.243-3.486.954-4.814 1.083-2.024 1.056-2.566-.161-3.336-2.164-1.369-4.55-1.142-5.97.569-1.03 1.24-.945 1.866.458 3.417.946 1.044 1.57 2.949 1.388 4.231-.305 2.159-.856 2.355-7.374 2.623-3.874.159-7.361-.029-7.75-.417zm17.794-19.373c0-1.833-.521-3.507-1.159-3.72-1.326-.442-2.829 5.121-1.823 6.748 1.262 2.043 2.982.297 2.982-3.028zm21.25 19.425c-1.23-1.244-.853-4.906.718-6.984 2.107-2.785 2.132-19.699.032-21.441-1.994-1.655-1.94-6.618.082-7.393 2.491-.956 15.608-.709 21.48.405 8.908 1.689 12.956 7.238 12.916 17.706-.028 7.515-2.747 13.574-7.15 15.932-2.512 1.346-6.27 1.875-15.328 2.158-6.6.207-12.337.034-12.75-.383zm19.316-7.46c1.69-.905 1.934-2.16 1.934-9.929 0-6.751-.378-9.272-1.571-10.465-1.886-1.886-2.647-1.953-4.229-.371-1.628 1.628-1.628 18.972 0 20.6 1.455 1.455 1.455 1.455 3.866.165z" transform="matrix(.6487 0 0 .6487 -186.396 -202.302)" fill="#fff" filter="url(#a)"/><path d="M616.172 473.664c-.997-2.597.366-9.629 2.404-12.395 1.047-1.422 4.23-4.337 7.073-6.477 6.237-4.695 6.894-7.61 1.715-7.61-1.899 0-4.6.524-6.004 1.163-3.138 1.43-3.574 1.027-4.237-3.917l-.526-3.92 5.926-1.663c7.373-2.068 9.226-2.073 14.312-.038 6.107 2.443 8.645 8.756 5.672 14.105-.68 1.227-3.894 4.377-7.14 7-3.245 2.624-6.084 5.333-6.309 6.02-.7 2.147 2.724 2.585 6.078.778 1.765-.95 4.328-1.57 5.695-1.378 2.228.314 2.486.818 2.486 4.85v4.5l-13.27.28c-11.33.238-13.359.049-13.875-1.298zm37.944-.44c-4.973-3.033-6.71-7.286-6.752-16.541-.029-6.242.402-8.745 1.958-11.387 5.629-9.556 22.362-9.556 27.99 0 1.556 2.642 1.987 5.145 1.958 11.387-.061 13.281-4.556 18.492-15.953 18.492-4.19 0-6.965-.588-9.201-1.952zm11.501-6.241c.76-.76 1.2-4.573 1.2-10.378 0-10.185-1.098-12.51-4.936-10.456-1.857.994-2.064 2.032-2.064 10.369 0 8.995.801 11.665 3.5 11.665.605 0 1.64-.54 2.3-1.2zm18.902 7.568c-.386-.386-.702-1.924-.702-3.418 0-1.891.618-2.879 2.035-3.249 1.91-.5 2.017-1.19 1.75-11.323-.277-10.497-.351-10.807-2.71-11.362-1.335-.314-2.587-1.054-2.784-1.644-.728-2.184 2.986-3.69 10.245-4.156l7.464-.48v14.097c0 13.21.13 14.166 2.06 15.199 1.451.777 1.968 1.895 1.75 3.785-.308 2.666-.368 2.685-9.358 2.968-4.977.156-9.365-.031-9.75-.417zm28.651-.89c-.91-2.375 1.268-8.953 5.731-17.305 2.154-4.03 3.916-7.742 3.916-8.25s-1.392-.923-3.093-.923c-2.279 0-3.235.54-3.63 2.051-.45 1.718-1.207 2.002-4.657 1.75l-4.12-.301-.3-5.75-.3-5.75h29.1v2.713c0 1.492-1.78 6.329-3.956 10.75-2.177 4.42-4.808 11.187-5.848 15.037l-1.892 7-5.163.303c-4.035.236-5.3-.053-5.788-1.326z" transform="matrix(.70389 0 0 .70389 -378.385 -211.838)" fill="#0b1414" filter="url(#b)"/><path d="M77.605 148.17c-.243-.179-.304-.763-.253-2.421.064-2.093.092-2.198.662-2.47.632-.303.647-.347 2.661-7.913 1.482-5.564 2.578-9.273 2.81-9.505.275-.275 10.425-.293 10.686-.019.141.148 2.058 6.901 3.359 11.831.591 2.243 1.433 5.069 1.58 5.307.079.128.29.232.468.232.178 0 .416.181.529.404.191.377.186 4.375-.006 4.567-.22.22-11.049.178-11.27-.044-.14-.14-.21-1.17-.171-2.523l.066-2.285.693-.126c.57-.104.681-.225.631-.694-.116-1.1-.195-1.145-1.984-1.145-1.83 0-1.993.106-1.993 1.288 0 .439.12.558.568.558.326 0 .671.19.808.446.276.515.319 3.917.055 4.332-.23.363-9.422.529-9.9.18zm11.338-10.474c.142-.23-.508-3.637-.794-4.16-.118-.217-.276.144-.456 1.038-.152.753-.359 1.753-.46 2.223-.1.47-.126.91-.057.98.209.209 1.628.144 1.767-.081zm29.096 10.667c-.759-.055-1.458-.225-1.554-.376-.263-.413-.218-3.816.056-4.329.132-.245.394-.446.582-.446.472 0 .586-.327 2.192-6.231 2.655-9.762 2.993-10.944 3.177-11.128.255-.255 10.426-.272 10.68-.018.113.113.863 2.661 1.257 4.003 1.183 4.03 2.973 10.815 3.324 12.153.18.691.435 1.057.882 1.271.608.29.63.37.687 2.375.033 1.141-.037 2.223-.155 2.405-.177.274-1.152.323-5.682.285-3.007-.025-5.56-.102-5.672-.17-.316-.196-.25-4.344.074-4.668.152-.153.516-.277.808-.277.58 0 .659-.325.305-1.255-.212-.557-.319-.591-1.838-.591-1.358 0-1.65.07-1.851.446-.423.79-.296 1.4.291 1.4.292 0 .656.124.808.277.314.314.395 4.469.09 4.657-.27.167-6.836.335-8.461.217zm10.034-10.747c.002-.646-.8-4.096-.953-4.096-.172 0-.59 1.734-.822 3.403l-.135.981h.954c.61 0 .955-.104.956-.288zM55.33 148c-.177-.517-.014-4.356.194-4.553.11-.105.41-.228.663-.274.448-.08.462-.265.462-6.185v-6.101l-.57-.135c-.667-.157-.926-1.027-.894-3.002.037-2.29-.719-2.077 7.343-2.077 6.324 0 7.274.049 8.515.435 2.875.895 4.61 2.392 5.881 5.075.692 1.46.728 1.68.801 4.875.057 2.483-.018 3.757-.293 4.94-.864 3.717-3.07 5.987-6.748 6.945-1.776.463-15.198.513-15.354.057zm12.46-5.148c.505-.354.512-.439.512-5.808 0-6.31.005-6.294-1.881-6.294h-1.119l-.024 3.866c-.013 2.126-.055 4.644-.094 5.596s-.015 2.016.053 2.365c.11.57.22.635 1.081.635.527 0 1.19-.162 1.472-.36zm34.254 2.96l.065-2.485.866-.072.865-.071V130.72l-.634.073c-.541.062-.645.192-.706.88-.1 1.153-.544 1.385-2.642 1.385-2.796 0-2.71.12-2.71-3.802 0-1.944.095-3.383.228-3.466.126-.077 5.026-.136 10.889-.131 8.314.008 10.7.074 10.845.3.101.16.186 1.66.188 3.333.004 3.81.037 3.766-2.766 3.766-2.337 0-2.769-.237-2.769-1.516 0-.727-.057-.792-.696-.792h-.696l.061 6.173.062 6.173.733.071c1.114.108 1.254.445 1.18 2.848l-.067 2.158-6.18.062-6.182.061z" fill="#f12403"/><path d="M372.817 471.742c0-1.893.45-3.72 1-4.06 1.368-.845 1.298-20.801-.078-22.177-.593-.593-.93-2.37-.75-3.95l.328-2.872 8.743-.289c4.81-.159 9.554.145 10.544.675.99.53 2.6 3.5 3.577 6.599.98 3.11 2.277 5.468 2.894 5.262.614-.205 1.97-2.932 3.014-6.062 2.205-6.616 2.844-6.92 13.635-6.484 8.912.36 10.688 1.922 7.843 6.9-2.364 4.135-2.487 19.402-.182 22.692.862 1.23 1.424 3.243 1.25 4.472-.3 2.113-.782 2.235-8.818 2.235s-8.517-.122-8.817-2.235c-.175-1.229.387-3.241 1.25-4.472 1.677-2.395 2.105-10.396.677-12.65-1.094-1.726-1.28-1.368-4.61 8.857-3.216 9.88-3.935 11-7.063 11-2.852 0-3.133-.445-6.923-11-1.68-4.675-3.494-8.5-4.034-8.5-1.718 0-1.704 9.165.019 12.498.882 1.706 1.326 3.98.985 5.052-.535 1.686-1.556 1.95-7.551 1.95h-6.933zm54.706 2.814c-1.176-1.177-.793-5.307.711-7.658.78-1.218 2.873-7.615 4.652-14.215 1.778-6.6 3.67-12.563 4.205-13.25 1.382-1.779 14.162-1.671 15.967.134.761.761 2.852 6.902 4.645 13.647 1.793 6.744 3.937 13.295 4.764 14.558.828 1.262 1.357 3.334 1.177 4.603-.312 2.204-.71 2.308-8.827 2.308-8.21 0-8.511-.082-8.839-2.4-.186-1.319.243-3.486.954-4.814 1.083-2.024 1.056-2.566-.161-3.336-2.164-1.369-4.55-1.142-5.97.569-1.03 1.24-.945 1.866.458 3.417.946 1.044 1.57 2.949 1.388 4.231-.305 2.159-.856 2.355-7.374 2.623-3.874.159-7.361-.029-7.75-.417zm17.794-19.373c0-1.833-.521-3.507-1.159-3.72-1.326-.442-2.829 5.121-1.823 6.748 1.262 2.043 2.982.297 2.982-3.028zm21.25 19.425c-1.23-1.244-.853-4.906.718-6.984 2.107-2.785 2.132-19.699.032-21.441-1.994-1.655-1.94-6.618.082-7.393 2.491-.956 15.608-.709 21.48.405 8.908 1.689 12.956 7.238 12.916 17.706-.028 7.515-2.747 13.574-7.15 15.932-2.512 1.346-6.27 1.875-15.328 2.158-6.6.207-12.337.034-12.75-.383zm19.316-7.46c1.69-.905 1.934-2.16 1.934-9.929 0-6.751-.378-9.272-1.571-10.465-1.886-1.886-2.647-1.953-4.229-.371-1.628 1.628-1.628 18.972 0 20.6 1.455 1.455 1.455 1.455 3.866.165z" transform="matrix(.6487 0 0 .6487 -186.396 -139.857)" fill="#fff" filter="url(#c)"/><path d="M616.172 473.664c-.997-2.597.366-9.629 2.404-12.395 1.047-1.422 4.23-4.337 7.073-6.477 6.237-4.695 6.894-7.61 1.715-7.61-1.899 0-4.6.524-6.004 1.163-3.138 1.43-3.574 1.027-4.237-3.917l-.526-3.92 5.926-1.663c7.373-2.068 9.226-2.073 14.312-.038 6.107 2.443 8.645 8.756 5.672 14.105-.68 1.227-3.894 4.377-7.14 7-3.245 2.624-6.084 5.333-6.309 6.02-.7 2.147 2.724 2.585 6.078.778 1.765-.95 4.328-1.57 5.695-1.378 2.228.314 2.486.818 2.486 4.85v4.5l-13.27.28c-11.33.238-13.359.049-13.875-1.298zm37.944-.44c-4.973-3.033-6.71-7.286-6.752-16.541-.029-6.242.402-8.745 1.958-11.387 5.629-9.556 22.362-9.556 27.99 0 1.556 2.642 1.987 5.145 1.958 11.387-.061 13.281-4.556 18.492-15.953 18.492-4.19 0-6.965-.588-9.201-1.952zm11.501-6.241c.76-.76 1.2-4.573 1.2-10.378 0-10.185-1.098-12.51-4.936-10.456-1.857.994-2.064 2.032-2.064 10.369 0 8.995.801 11.665 3.5 11.665.605 0 1.64-.54 2.3-1.2zm18.902 7.568c-.386-.386-.702-1.924-.702-3.418 0-1.891.618-2.879 2.035-3.249 1.91-.5 2.017-1.19 1.75-11.323-.277-10.497-.351-10.807-2.71-11.362-1.335-.314-2.587-1.054-2.784-1.644-.728-2.184 2.986-3.69 10.245-4.156l7.464-.48v14.097c0 13.21.13 14.166 2.06 15.199 1.451.777 1.968 1.895 1.75 3.785-.308 2.666-.368 2.685-9.358 2.968-4.977.156-9.365-.031-9.75-.417zm28.651-.89c-.91-2.375 1.268-8.953 5.731-17.305 2.154-4.03 3.916-7.742 3.916-8.25s-1.392-.923-3.093-.923c-2.279 0-3.235.54-3.63 2.051-.45 1.718-1.207 2.002-4.657 1.75l-4.12-.301-.3-5.75-.3-5.75h29.1v2.713c0 1.492-1.78 6.329-3.956 10.75-2.177 4.42-4.808 11.187-5.848 15.037l-1.892 7-5.163.303c-4.035.236-5.3-.053-5.788-1.326z" transform="matrix(.70389 0 0 .70389 -378.385 -149.393)" fill="#0b1414" filter="url(#d)"/><g><path d="M372.817 471.742c0-1.893.45-3.72 1-4.06 1.368-.845 1.298-20.801-.078-22.177-.593-.593-.93-2.37-.75-3.95l.328-2.872 8.743-.289c4.81-.159 9.554.145 10.544.675.99.53 2.6 3.5 3.577 6.599.98 3.11 2.277 5.468 2.894 5.262.614-.205 1.97-2.932 3.014-6.062 2.205-6.616 2.844-6.92 13.635-6.484 8.912.36 10.688 1.922 7.843 6.9-2.364 4.135-2.487 19.402-.182 22.692.862 1.23 1.424 3.243 1.25 4.472-.3 2.113-.782 2.235-8.818 2.235s-8.517-.122-8.817-2.235c-.175-1.229.387-3.241 1.25-4.472 1.677-2.395 2.105-10.396.677-12.65-1.094-1.726-1.28-1.368-4.61 8.857-3.216 9.88-3.935 11-7.063 11-2.852 0-3.133-.445-6.923-11-1.68-4.675-3.494-8.5-4.034-8.5-1.718 0-1.704 9.165.019 12.498.882 1.706 1.326 3.98.985 5.052-.535 1.686-1.556 1.95-7.551 1.95h-6.933zm54.706 2.814c-1.176-1.177-.793-5.307.711-7.658.78-1.218 2.873-7.615 4.652-14.215 1.778-6.6 3.67-12.563 4.205-13.25 1.382-1.779 14.162-1.671 15.967.134.761.761 2.852 6.902 4.645 13.647 1.793 6.744 3.937 13.295 4.764 14.558.828 1.262 1.357 3.334 1.177 4.603-.312 2.204-.71 2.308-8.827 2.308-8.21 0-8.511-.082-8.839-2.4-.186-1.319.243-3.486.954-4.814 1.083-2.024 1.056-2.566-.161-3.336-2.164-1.369-4.55-1.142-5.97.569-1.03 1.24-.945 1.866.458 3.417.946 1.044 1.57 2.949 1.388 4.231-.305 2.159-.856 2.355-7.374 2.623-3.874.159-7.361-.029-7.75-.417zm17.794-19.373c0-1.833-.521-3.507-1.159-3.72-1.326-.442-2.829 5.121-1.823 6.748 1.262 2.043 2.982.297 2.982-3.028zm21.25 19.425c-1.23-1.244-.853-4.906.718-6.984 2.107-2.785 2.132-19.699.032-21.441-1.994-1.655-1.94-6.618.082-7.393 2.491-.956 15.608-.709 21.48.405 8.908 1.689 12.956 7.238 12.916 17.706-.028 7.515-2.747 13.574-7.15 15.932-2.512 1.346-6.27 1.875-15.328 2.158-6.6.207-12.337.034-12.75-.383zm19.316-7.46c1.69-.905 1.934-2.16 1.934-9.929 0-6.751-.378-9.272-1.571-10.465-1.886-1.886-2.647-1.953-4.229-.371-1.628 1.628-1.628 18.972 0 20.6 1.455 1.455 1.455 1.455 3.866.165z" transform="matrix(.6487 0 0 .6487 -186.396 -265.554)" fill="#fff" filter="url(#e)"/></g><g><path d="M614.802 475.665c-1.836-2.213-.527-11.066 2.235-15.107 1.254-1.835 4.415-4.967 7.025-6.96 5.25-4.009 5.46-5.815.492-4.245-7.423 2.345-7.505 2.328-8.656-1.818-2.107-7.587-1.559-8.377 7.577-10.917 9.687-2.693 18.02.158 20.949 7.166l1.486 3.557 2.204-3.237c3.374-4.957 6.784-6.97 12.868-7.599 7.074-.73 11.914.865 15.694 5.17l2.959 3.37.603-2.402c.893-3.56 4.114-4.76 13.054-4.866l8.025-.094.28 13.926c.251 12.545.474 14.064 2.25 15.307 2.682 1.879 2.705 7.803.036 9.232-2.74 1.466-19.366 1.334-20.866-.165-.66-.66-1.2-2.88-1.2-4.933 0-2.854.47-3.882 2-4.367 1.814-.576 2-1.513 2-10.068 0-7.476-.294-9.432-1.418-9.432-.78 0-2.077-.253-2.883-.562-1.234-.474-1.321.192-.553 4.25 2.809 14.83-4.534 26.312-16.826 26.312-6.99 0-11.223-1.846-15.145-6.604l-3.175-3.852v4.028c0 2.215-.54 4.568-1.2 5.228-.816.816-5.573 1.2-14.877 1.2-11.01 0-13.924-.296-14.938-1.518zm20.104-11.09c1.007-1.212 2.532-1.49 6.22-1.136l4.886.469-.597-2.988c-.329-1.643-.598-3.883-.598-4.978 0-1.726-.524-1.519-3.917 1.547-2.155 1.947-5.08 4.301-6.5 5.232-2.541 1.665-3.426 3.462-1.705 3.462.482 0 1.477-.723 2.21-1.607zm29.699-7.642c-.165-5.308-.714-9.25-1.288-9.25-.574 0-1.122 3.942-1.287 9.25-.245 7.873-.053 9.25 1.287 9.25 1.34 0 1.532-1.377 1.288-9.25zm47.317 19.336c-2.226-1.41-.76-8.24 3.811-17.768 4.527-9.433 4.489-9.318 3.084-9.318-.55 0-1 .627-1 1.393s-.712 1.666-1.582 2c-2.691 1.033-8.956.67-10.218-.593-1.344-1.344-1.615-11.598-.359-13.577.613-.966 4.565-1.21 16.235-1l15.424.277.324 3.395c.234 2.451-.921 5.927-4.155 12.5-2.464 5.008-5.041 11.805-5.727 15.105-.686 3.3-1.94 6.562-2.786 7.25-1.756 1.427-10.954 1.664-13.051.336z" transform="translate(-376.07 -274.453) scale(.70169)" fill="none" filter="url(#f)"/><path d="M616.172 473.664c-.997-2.597.366-9.629 2.404-12.395 1.047-1.422 4.23-4.337 7.073-6.477 6.237-4.695 6.894-7.61 1.715-7.61-1.899 0-4.6.524-6.004 1.163-3.138 1.43-3.574 1.027-4.237-3.917l-.526-3.92 5.926-1.663c7.373-2.068 9.226-2.073 14.312-.038 6.107 2.443 8.645 8.756 5.672 14.105-.68 1.227-3.894 4.377-7.14 7-3.245 2.624-6.084 5.333-6.309 6.02-.7 2.147 2.724 2.585 6.078.778 1.765-.95 4.328-1.57 5.695-1.378 2.228.314 2.486.818 2.486 4.85v4.5l-13.27.28c-11.33.238-13.359.049-13.875-1.298zm37.944-.44c-4.973-3.033-6.71-7.286-6.752-16.541-.029-6.242.402-8.745 1.958-11.387 5.629-9.556 22.362-9.556 27.99 0 1.556 2.642 1.987 5.145 1.958 11.387-.061 13.281-4.556 18.492-15.953 18.492-4.19 0-6.965-.588-9.201-1.952zm11.501-6.241c.76-.76 1.2-4.573 1.2-10.378 0-10.185-1.098-12.51-4.936-10.456-1.857.994-2.064 2.032-2.064 10.369 0 8.995.801 11.665 3.5 11.665.605 0 1.64-.54 2.3-1.2zm18.902 7.568c-.386-.386-.702-1.924-.702-3.418 0-1.891.618-2.879 2.035-3.249 1.91-.5 2.017-1.19 1.75-11.323-.277-10.497-.351-10.807-2.71-11.362-1.335-.314-2.587-1.054-2.784-1.644-.728-2.184 2.986-3.69 10.245-4.156l7.464-.48v14.097c0 13.21.13 14.166 2.06 15.199 1.451.777 1.968 1.895 1.75 3.785-.308 2.666-.368 2.685-9.358 2.968-4.977.156-9.365-.031-9.75-.417zm28.651-.89c-.91-2.375 1.268-8.953 5.731-17.305 2.154-4.03 3.916-7.742 3.916-8.25s-1.392-.923-3.093-.923c-2.279 0-3.235.54-3.63 2.051-.45 1.718-1.207 2.002-4.657 1.75l-4.12-.301-.3-5.75-.3-5.75h29.1v2.713c0 1.492-1.78 6.329-3.956 10.75-2.177 4.42-4.808 11.187-5.848 15.037l-1.892 7-5.163.303c-4.035.236-5.3-.053-5.788-1.326z" transform="matrix(.70389 0 0 .70389 -378.385 -275.09)" fill="#0b1414" filter="url(#f)"/></g></svg>