<?xml version="1.0" encoding="UTF-8" standalone="no"?>
<!-- Generator: Adobe Illustrator 17.0.1, SVG Export Plug-In . SVG Version: 6.00 Build 0)  -->

<svg
   xmlns:dc="http://purl.org/dc/elements/1.1/"
   xmlns:cc="http://creativecommons.org/ns#"
   xmlns:rdf="http://www.w3.org/1999/02/22-rdf-syntax-ns#"
   xmlns:svg="http://www.w3.org/2000/svg"
   xmlns="http://www.w3.org/2000/svg"
   xmlns:sodipodi="http://sodipodi.sourceforge.net/DTD/sodipodi-0.dtd"
   xmlns:inkscape="http://www.inkscape.org/namespaces/inkscape"
   version="1.1"
   id="Layer_1"
   x="0px"
   y="0px"
   width="185px"
   height="188px"
   viewBox="0 0 185 188"
   enable-background="new 0 0 185 188"
   xml:space="preserve"
   sodipodi:docname="logos.svg"
   inkscape:version="0.92.2 (5c3e80d, 2017-08-06)"><metadata
     id="metadata235"><rdf:RDF><cc:Work
         rdf:about=""><dc:format>image/svg+xml</dc:format><dc:type
           rdf:resource="http://purl.org/dc/dcmitype/StillImage" /><dc:title></dc:title></cc:Work></rdf:RDF></metadata><defs
     id="defs233"><filter
       style="color-interpolation-filters:sRGB;"
       inkscape:label="Greyscale"
       id="filter390"><feColorMatrix
         values="-0.90508 5.29 0.072 -0.1 0 -0.90508 5.29 0.072 -0.1 0 -0.90508 5.29 0.072 -0.1 0 0 0 0 1 0 "
         id="feColorMatrix388" /></filter><filter
       style="color-interpolation-filters:sRGB;"
       inkscape:label="Greyscale"
       id="filter422"><feColorMatrix
         values="4.01604 8.29 0.072 -0.1 0 4.01604 8.29 0.072 -0.1 0 4.01604 8.29 0.072 -0.1 0 0 0 0 1 0 "
         id="feColorMatrix420" /></filter><filter
       style="color-interpolation-filters:sRGB"
       inkscape:label="Greyscale"
       id="filter422-2"><feColorMatrix
         values="4.01604 8.29 0.072 -0.1 0 4.01604 8.29 0.072 -0.1 0 4.01604 8.29 0.072 -0.1 0 0 0 0 1 0 "
         id="feColorMatrix420-7" /></filter><filter
       style="color-interpolation-filters:sRGB"
       inkscape:label="Greyscale"
       id="filter390-4"><feColorMatrix
         values="-0.90508 5.29 0.072 -0.1 0 -0.90508 5.29 0.072 -0.1 0 -0.90508 5.29 0.072 -0.1 0 0 0 0 1 0 "
         id="feColorMatrix388-8" /></filter><filter
       style="color-interpolation-filters:sRGB"
       inkscape:label="Greyscale"
       id="filter422-2-7"><feColorMatrix
         values="4.01604 8.29 0.072 -0.1 0 4.01604 8.29 0.072 -0.1 0 4.01604 8.29 0.072 -0.1 0 0 0 0 1 0 "
         id="feColorMatrix420-7-8" /></filter><filter
       style="color-interpolation-filters:sRGB"
       inkscape:label="Greyscale"
       id="filter390-4-2"><feColorMatrix
         values="-0.90508 5.29 0.072 -0.1 0 -0.90508 5.29 0.072 -0.1 0 -0.90508 5.29 0.072 -0.1 0 0 0 0 1 0 "
         id="feColorMatrix388-8-5" /></filter><filter
       style="color-interpolation-filters:sRGB"
       inkscape:label="Greyscale"
       id="filter422-2-9"><feColorMatrix
         values="4.01604 8.29 0.072 -0.1 0 4.01604 8.29 0.072 -0.1 0 4.01604 8.29 0.072 -0.1 0 0 0 0 1 0 "
         id="feColorMatrix420-7-6" /></filter><filter
       style="color-interpolation-filters:sRGB"
       inkscape:label="Greyscale"
       id="filter390-4-21"><feColorMatrix
         values="-0.90508 5.29 0.072 -0.1 0 -0.90508 5.29 0.072 -0.1 0 -0.90508 5.29 0.072 -0.1 0 0 0 0 1 0 "
         id="feColorMatrix388-8-2" /></filter></defs><sodipodi:namedview
     pagecolor="#ffffff"
     bordercolor="#666666"
     borderopacity="1"
     objecttolerance="10"
     gridtolerance="10"
     guidetolerance="10"
     inkscape:pageopacity="0"
     inkscape:pageshadow="2"
     inkscape:window-width="1920"
     inkscape:window-height="1012"
     id="namedview231"
     showgrid="false"
     inkscape:zoom="4"
     inkscape:cx="81.923095"
     inkscape:cy="83.374669"
     inkscape:window-x="0"
     inkscape:window-y="31"
     inkscape:window-maximized="1"
     inkscape:current-layer="layer1"
     showguides="true"
     inkscape:guide-bbox="true"><sodipodi:guide
       position="55.331106,104.82858"
       orientation="1,0"
       id="guide850"
       inkscape:locked="false" /><sodipodi:guide
       position="139.83037,70.180348"
       orientation="1,0"
       id="guide852"
       inkscape:locked="false" /><sodipodi:guide
       position="110.51871,128.68346"
       orientation="0,1"
       id="guide854"
       inkscape:locked="false" /><sodipodi:guide
       position="189.15106,119.14749"
       orientation="0,1"
       id="guide869"
       inkscape:locked="false" /><sodipodi:guide
       position="182.61033,65.760931"
       orientation="0,1"
       id="guide871"
       inkscape:locked="false" /><sodipodi:guide
       position="183.84776,56.214989"
       orientation="0,1"
       id="guide873"
       inkscape:locked="false" /><sodipodi:guide
       position="136.35845,2.9861967"
       orientation="0,1"
       id="guide875"
       inkscape:locked="false" /></sodipodi:namedview><rect
     style="color:#000000;clip-rule:nonzero;display:inline;overflow:visible;visibility:visible;opacity:1;isolation:auto;mix-blend-mode:normal;color-interpolation:sRGB;color-interpolation-filters:linearRGB;solid-color:#000000;solid-opacity:1;fill:#2b0000;fill-opacity:0.94901961;fill-rule:nonzero;stroke:none;stroke-width:1px;stroke-linecap:butt;stroke-linejoin:miter;stroke-miterlimit:4;stroke-dasharray:none;stroke-dashoffset:0;stroke-opacity:1;color-rendering:auto;image-rendering:auto;shape-rendering:auto;text-rendering:auto;enable-background:accumulate"
     id="rect856"
     width="0.17677669"
     height="0.88388348"
     x="36.239223"
     y="-13.17188" /><g
     inkscape:groupmode="layer"
     id="layer1"
     inkscape:label="data"><path
       style="fill:#f12403;fill-opacity:1;stroke-width:0.23076521"
       d="m 77.604554,22.472094 c -0.24271,-0.177864 -0.30384,-0.762722 -0.25298,-2.420546 0.0642,-2.092726 0.0924,-2.198168 0.66214,-2.470611 0.63224,-0.302369 0.64712,-0.346603 2.66168,-7.912555 1.48147,-5.563874 2.57781,-9.272966 2.80938,-9.50453 0.27477,-0.274775 10.42487,-0.292843 10.68669,-0.01901 0.14096,0.147433 2.05803,6.900996 3.35839,11.831208 0.59151,2.242657 1.43303,5.068647 1.5803,5.306947 0.0786,0.127275 0.28901,0.231417 0.46743,0.231417 0.17841,0 0.41657,0.181737 0.529216,0.40384 0.19154,0.377688 0.18612,4.375221 -0.006,4.567537 -0.219556,0.219555 -11.048556,0.177533 -11.269826,-0.04373 -0.14063,-0.140628 -0.2105,-1.170693 -0.17115,-2.523171 l 0.0665,-2.285525 0.6923,-0.125725 c 0.57095,-0.103687 0.6817,-0.225332 0.63186,-0.694075 -0.11696,-1.099934 -0.19554,-1.145287 -1.98453,-1.145287 -1.82925,0 -1.99343,0.106084 -1.99343,1.288083 0,0.439273 0.12106,0.558038 0.56879,0.558038 0.32617,0 0.67069,0.190398 0.80768,0.446361 0.27569,0.515134 0.31855,3.917096 0.0546,4.332438 -0.23027,0.362318 -9.42182,0.52843 -9.89883,0.178897 z m 11.33832,-10.473358 c 0.1422,-0.230087 -0.50783,-3.636971 -0.79386,-4.160697 -0.11787,-0.215806 -0.27612,0.144298 -0.45636,1.038443 -0.15175,0.752849 -0.35853,1.753112 -0.4595,2.22281 -0.10098,0.469694 -0.12654,0.911033 -0.0568,0.980751 0.20853,0.208533 1.62778,0.14321 1.76654,-0.08131 z m 29.095966,10.666886 c -0.75849,-0.0553 -1.45784,-0.224453 -1.55414,-0.375916 -0.26233,-0.41263 -0.21772,-3.8161 0.0567,-4.328945 0.13139,-0.245499 0.39323,-0.446361 0.58187,-0.446361 0.4714,0 0.58617,-0.326223 2.19207,-6.23066 2.65515,-9.762179 2.99242,-10.943608 3.17674,-11.127942 0.25508,-0.255076 10.42549,-0.271916 10.67971,-0.01771 0.11299,0.112982 0.86294,2.660731 1.25697,4.002471 1.18338,4.02954 2.97373,10.814854 3.32403,12.152735 0.18111,0.691899 0.43497,1.057609 0.88258,1.271698 0.60751,0.290573 0.63023,0.369089 0.68702,2.374905 0.0323,1.140918 -0.0375,2.223214 -0.15511,2.405101 -0.17724,0.273954 -1.15223,0.322884 -5.68217,0.285146 -3.00759,-0.02504 -5.55986,-0.102118 -5.67172,-0.171243 -0.31648,-0.195599 -0.25114,-4.342925 0.0736,-4.667608 0.1523,-0.152302 0.51576,-0.276918 0.80767,-0.276918 0.58012,0 0.6592,-0.324432 0.30571,-1.254185 -0.21195,-0.557481 -0.31894,-0.591935 -1.83801,-0.591935 -1.35849,0 -1.65062,0.07042 -1.85183,0.446359 -0.42302,0.790435 -0.29598,1.399754 0.29188,1.399754 0.29192,0 0.65537,0.124619 0.80767,0.27692 0.31442,0.314419 0.39493,4.468977 0.0903,4.65728 -0.27036,0.167094 -6.83626,0.335499 -8.46148,0.217023 z m 10.03382,-10.747278 c 0.002,-0.645551 -0.79988,-4.096082 -0.95237,-4.096082 -0.17228,0 -0.59119,1.73477 -0.82196,3.403787 l -0.13561,0.980751 h 0.95443 c 0.60913,0 0.95482,-0.10435 0.9555,-0.288456 z M 55.331106,22.302776 c -0.177108,-0.51689 -0.01365,-4.356254 0.193718,-4.55255 0.111045,-0.105069 0.40958,-0.228492 0.663422,-0.27428 0.447794,-0.08078 0.461529,-0.264844 0.461529,-6.184965 V 5.189267 L 56.080567,5.054892 C 55.413154,4.897333 55.154188,4.028125 55.186246,2.053126 c 0.03718,-2.290772 -0.719027,-2.076887 7.343033,-2.076887 6.323379,0 7.273484,0.0485 8.514498,0.434762 2.874897,0.894768 4.610257,2.392217 5.881437,5.075131 0.69133,1.459092 0.72769,1.680277 0.80112,4.874541 0.0571,2.483156 -0.0186,3.756959 -0.29336,4.939239 -0.86415,3.717927 -3.06958,5.988171 -6.747968,6.946268 -1.776462,0.462712 -15.197795,0.512178 -15.3539,0.05658 z m 12.459432,-5.147611 c 0.505374,-0.353977 0.512879,-0.438977 0.512879,-5.80865 0,-6.309209 0.0048,-6.293438 -1.881887,-6.293438 h -1.118062 l -0.02401,3.865317 c -0.01328,2.125925 -0.05572,4.644151 -0.09447,5.596057 -0.03875,0.951907 -0.01494,2.016312 0.05286,2.365343 0.110879,0.570616 0.219927,0.634604 1.081555,0.634604 0.527041,0 1.189048,-0.161653 1.471127,-0.359233 z m 34.254422,2.959126 0.0655,-2.484511 0.86536,-0.07163 0.86538,-0.07161 V 11.254474 5.022419 l -0.63461,0.07301 c -0.54099,0.06225 -0.64502,0.192163 -0.70521,0.880698 -0.10071,1.152221 -0.5442,1.384592 -2.642466,1.384592 -2.79544,0 -2.70988,0.120026 -2.70988,-3.802128 0,-1.943993 0.0948,-3.38296 0.22836,-3.46549 0.1256,-0.07763 5.025436,-0.136736 10.888556,-0.13137 8.31413,0.0076 10.70085,0.07379 10.84483,0.300593 0.10155,0.159938 0.18621,1.659333 0.18816,3.331969 0.004,3.810737 0.037,3.766418 -2.76565,3.766418 -2.33682,0 -2.76919,-0.236774 -2.76919,-1.516459 0,-0.726212 -0.0572,-0.791194 -0.69606,-0.791194 h -0.69608 l 0.0614,6.172971 0.0614,6.172968 0.73281,0.07103 c 1.11492,0.108076 1.25423,0.444289 1.17997,2.847984 l -0.0666,2.157821 -6.18081,0.06147 -6.18082,0.06147 z"
       id="path3538-62"
       inkscape:connector-curvature="0"
       sodipodi:nodetypes="cccsscccscccccccsssscccccccccccccssscacccccccssscscccccsccscccccscssscsccccccssccscsccccccccscsscccssssccccccccc" /><path
       style="fill:#f12403;fill-opacity:1;stroke-width:0.23076521"
       d="m 77.604556,85.72438 c -0.24271,-0.177864 -0.30384,-0.762722 -0.25298,-2.420546 0.0642,-2.092726 0.0924,-2.198168 0.66214,-2.470611 0.63224,-0.302369 0.64712,-0.346603 2.66168,-7.912556 1.48147,-5.563874 2.57781,-9.272966 2.80938,-9.50453 0.27477,-0.274775 10.42487,-0.292843 10.68669,-0.01901 0.14096,0.147433 2.05803,6.900996 3.35839,11.831209 0.59151,2.242657 1.43303,5.068647 1.5803,5.306947 0.0786,0.127275 0.28901,0.231417 0.46743,0.231417 0.17841,0 0.41657,0.181737 0.529214,0.40384 0.19154,0.377688 0.18612,4.375221 -0.006,4.567537 -0.219554,0.219555 -11.048554,0.177533 -11.269824,-0.04373 -0.14063,-0.140628 -0.2105,-1.170693 -0.17115,-2.523171 l 0.0665,-2.285525 0.6923,-0.125725 c 0.57095,-0.103687 0.6817,-0.225332 0.63186,-0.694075 -0.11696,-1.099934 -0.19554,-1.145287 -1.98453,-1.145287 -1.82925,0 -1.99343,0.106084 -1.99343,1.288083 0,0.439273 0.12106,0.558038 0.56879,0.558038 0.32617,0 0.67069,0.190398 0.80768,0.446361 0.27569,0.515134 0.31855,3.917096 0.0546,4.332438 -0.23027,0.362318 -9.42182,0.52843 -9.89883,0.178897 z m 11.33832,-10.473358 c 0.1422,-0.230087 -0.50783,-3.636972 -0.79386,-4.160698 -0.11787,-0.215806 -0.27612,0.144298 -0.45636,1.038443 -0.15175,0.752849 -0.35853,1.753113 -0.4595,2.222811 -0.10098,0.469694 -0.12654,0.911033 -0.0568,0.980751 0.20853,0.208533 1.62778,0.14321 1.76654,-0.08131 z m 29.095964,10.666886 c -0.75849,-0.0553 -1.45784,-0.224453 -1.55414,-0.375916 -0.26233,-0.41263 -0.21772,-3.8161 0.0567,-4.328945 0.13139,-0.245499 0.39323,-0.446361 0.58187,-0.446361 0.4714,0 0.58617,-0.326223 2.19207,-6.23066 2.65515,-9.76218 2.99242,-10.943609 3.17674,-11.127943 0.25508,-0.255076 10.42549,-0.271916 10.67971,-0.01771 0.11299,0.112982 0.86294,2.660731 1.25697,4.002471 1.18338,4.02954 2.97373,10.814855 3.32403,12.152736 0.18111,0.691899 0.43497,1.057609 0.88258,1.271698 0.60751,0.290573 0.63023,0.369089 0.68702,2.374905 0.0323,1.140918 -0.0375,2.223214 -0.15511,2.405101 -0.17724,0.273954 -1.15223,0.322884 -5.68217,0.285146 -3.00759,-0.02504 -5.55986,-0.102118 -5.67172,-0.171243 -0.31648,-0.195599 -0.25114,-4.342925 0.0736,-4.667608 0.1523,-0.152302 0.51576,-0.276918 0.80767,-0.276918 0.58012,0 0.6592,-0.324432 0.30571,-1.254185 -0.21195,-0.557481 -0.31894,-0.591935 -1.83801,-0.591935 -1.35849,0 -1.65062,0.07042 -1.85183,0.446359 -0.42302,0.790435 -0.29598,1.399754 0.29188,1.399754 0.29192,0 0.65537,0.124619 0.80767,0.27692 0.31442,0.314419 0.39493,4.468977 0.0903,4.65728 -0.27036,0.167094 -6.83626,0.335499 -8.46148,0.217023 z M 128.07266,75.17063 c 0.002,-0.645551 -0.79988,-4.096083 -0.95237,-4.096083 -0.17228,0 -0.59119,1.73477 -0.82196,3.403788 l -0.13561,0.980751 h 0.95443 c 0.60913,0 0.95482,-0.10435 0.9555,-0.288456 z M 55.331108,85.555062 c -0.177108,-0.51689 -0.01365,-4.356254 0.193718,-4.55255 0.111045,-0.105069 0.40958,-0.228492 0.663422,-0.27428 0.447794,-0.08078 0.461529,-0.264844 0.461529,-6.184965 v -6.101715 l -0.569208,-0.134375 c -0.667413,-0.157559 -0.926379,-1.026767 -0.894321,-3.001766 0.03718,-2.290772 -0.719027,-2.076887 7.343033,-2.076887 6.323379,0 7.273484,0.0485 8.514498,0.434762 2.874897,0.894768 4.610257,2.392217 5.881437,5.075131 0.69133,1.459092 0.72769,1.680277 0.80112,4.874542 0.0571,2.483156 -0.0186,3.756959 -0.29336,4.939239 -0.86415,3.717927 -3.06958,5.988171 -6.747968,6.946268 -1.776462,0.462712 -15.197795,0.512178 -15.3539,0.05658 z M 67.79054,80.407451 c 0.505374,-0.353977 0.512879,-0.438977 0.512879,-5.80865 0,-6.30921 0.0048,-6.293439 -1.881887,-6.293439 H 65.30347 l -0.02401,3.865317 c -0.01328,2.125926 -0.05572,4.644152 -0.09447,5.596058 -0.03875,0.951907 -0.01494,2.016312 0.05286,2.365343 0.110879,0.570616 0.219927,0.634604 1.081555,0.634604 0.527041,0 1.189048,-0.161653 1.471127,-0.359233 z m 34.25442,2.959126 0.0655,-2.484511 0.86536,-0.07163 0.86538,-0.07161 V 74.50676 68.274704 l -0.63461,0.07301 c -0.54099,0.06225 -0.64502,0.192163 -0.70521,0.880698 -0.10071,1.152221 -0.5442,1.384592 -2.642464,1.384592 -2.79544,0 -2.70988,0.120026 -2.70988,-3.802128 0,-1.943993 0.0948,-3.38296 0.22836,-3.46549 0.1256,-0.07763 5.025434,-0.136736 10.888554,-0.13137 8.31413,0.0076 10.70085,0.07379 10.84483,0.300593 0.10155,0.159938 0.18621,1.659333 0.18816,3.331969 0.004,3.810737 0.037,3.766418 -2.76565,3.766418 -2.33682,0 -2.76919,-0.236774 -2.76919,-1.516459 0,-0.726212 -0.0572,-0.791194 -0.69606,-0.791194 h -0.69608 l 0.0614,6.172972 0.0614,6.172968 0.73281,0.07103 c 1.11492,0.108076 1.25423,0.444289 1.17997,2.847984 l -0.0666,2.157821 -6.18081,0.06147 -6.18082,0.06147 z"
       id="path3538-62-3"
       inkscape:connector-curvature="0"
       sodipodi:nodetypes="cccsscccscccccccsssscccccccccccccssscacccccccssscscccccsccscccccscssscsccccccssccscsccccccccscsscccssssccccccccc" /><path
       style="fill:#ffffff;filter:url(#filter390-4-2);fill-opacity:1"
       d="m 372.81713,471.74189 c 0,-1.89254 0.45,-3.7191 1,-4.05902 1.36799,-0.84547 1.29764,-20.80236 -0.0782,-22.17818 -0.593,-0.593 -0.9305,-2.3705 -0.75,-3.95 l 0.3282,-2.87182 8.74318,-0.28883 c 4.80875,-0.15886 9.5534,0.14478 10.54366,0.67475 0.99026,0.52997 2.59984,3.49945 3.57683,6.59883 0.98044,3.11031 2.27706,5.46834 2.89384,5.26275 0.61462,-0.20488 1.97092,-2.93279 3.014,-6.06203 2.20552,-6.61657 2.84468,-6.92051 13.6355,-6.48409 8.91216,0.36045 10.68744,1.92202 7.84299,6.89881 -2.36403,4.13622 -2.48679,19.40288 -0.18247,22.69275 0.86214,1.23088 1.42464,3.24351 1.25,4.47251 -0.3002,2.11257 -0.78153,2.23455 -8.81753,2.23455 -8.036,0 -8.51733,-0.12198 -8.81753,-2.23455 -0.17464,-1.229 0.38786,-3.24163 1.25,-4.47251 1.67713,-2.39443 2.10548,-10.39561 0.67722,-12.6497 -1.09347,-1.72572 -1.27958,-1.36808 -4.60895,8.85676 -3.21727,9.88055 -3.93618,11 -7.06417,11 -2.85202,0 -3.1323,-0.44533 -6.92305,-11 -1.67904,-4.675 -3.49396,-8.5 -4.03316,-8.5 -1.71839,0 -1.70482,9.16526 0.0185,12.4978 0.88231,1.70619 1.32568,3.97967 0.98528,5.05218 -0.53522,1.68632 -1.5564,1.95002 -7.55153,1.95002 h -6.93261 z m 54.70631,2.81396 c -1.17685,-1.17685 -0.79348,-5.3071 0.71083,-7.65816 0.77942,-1.21815 2.87251,-7.61482 4.6513,-14.21482 1.77879,-6.6 3.67118,-12.5625 4.20531,-13.25 1.38177,-1.77854 14.16211,-1.67128 15.9674,0.134 0.7612,0.7612 2.85123,6.90224 4.64452,13.64674 1.79329,6.74451 3.93733,13.29569 4.76455,14.55818 0.82722,1.2625 1.35683,3.33397 1.17691,4.60326 -0.31238,2.20376 -0.71039,2.30782 -8.82713,2.30782 -8.21058,0 -8.51155,-0.0817 -8.83911,-2.39924 -0.18651,-1.31958 0.2427,-3.48635 0.95379,-4.81504 1.08281,-2.02325 1.05667,-2.56523 -0.16089,-3.33544 -2.16435,-1.36915 -4.54981,-1.14197 -5.96936,0.56848 -1.0297,1.24071 -0.94587,1.86637 0.45792,3.41753 0.9451,1.04433 1.5697,2.94839 1.38801,4.23124 -0.30569,2.15831 -0.85631,2.3541 -7.37405,2.62212 -3.87403,0.1593 -7.36153,-0.0282 -7.75,-0.41667 z m 17.79369,-19.37298 c 0,-1.83333 -0.52151,-3.50717 -1.15891,-3.71964 -1.32599,-0.44199 -2.82924,5.12078 -1.82355,6.74803 1.26251,2.04277 2.98246,0.29633 2.98246,-3.02839 z m 21.25,19.42507 c -1.22986,-1.24364 -0.85321,-4.90636 0.7182,-6.98394 2.10641,-2.78493 2.1315,-19.69853 0.0318,-21.44113 -1.9943,-1.65512 -1.9394,-6.61741 0.0818,-7.39301 2.4912,-0.95596 15.60814,-0.70885 21.47968,0.40467 8.90863,1.68948 12.95633,7.23813 12.91657,17.70622 -0.0285,7.51505 -2.74764,13.57456 -7.14946,15.93258 -2.51227,1.34581 -6.27148,1.87506 -15.32858,2.15806 -6.6,0.20623 -12.3375,0.0337 -12.75,-0.38345 z m 19.31574,-7.46025 c 1.68975,-0.90433 1.93426,-2.1594 1.93426,-9.92858 0,-6.75156 -0.37845,-9.27184 -1.57143,-10.46481 -1.88603,-1.88603 -2.64711,-1.95289 -4.22857,-0.37143 -1.62796,1.62796 -1.62796,18.97204 0,20.6 1.45492,1.45492 1.45514,1.45493 3.86574,0.16482 z"
       id="path3536-7-4"
       inkscape:connector-curvature="0"
       transform="matrix(0.64869415,0,0,0.64869415,-186.39558,-202.30209)"
       sodipodi:nodetypes="sccccssccscsccsccsssssccscsscsccscsssccscccssccscccccccscccscssc" /><path
       sodipodi:nodetypes="cccssscsccccscscsccccsscscsssssscscsccscsccscccsscccccccsssccc"
       style="fill:#0b1414;fill-opacity:1;stroke:none;filter:url(#filter422-2-7)"
       d="m 616.17166,473.66438 c -0.9968,-2.59762 0.36684,-9.62891 2.40386,-12.39493 1.04767,-1.42262 4.23063,-4.33731 7.07323,-6.4771 6.23755,-4.69534 6.89449,-7.60948 1.71543,-7.60948 -1.89912,0 -4.60102,0.5231 -6.00422,1.16244 -3.13774,1.42965 -3.57366,1.02661 -4.23677,-3.91725 l -0.52578,-3.91999 5.92546,-1.6626 c 7.37352,-2.0689 9.22584,-2.0739 14.31244,-0.0387 6.10629,2.44325 8.64467,8.75577 5.67213,14.10563 -0.68135,1.22626 -3.89438,4.37626 -7.14006,7 -3.24569,2.62373 -6.0847,5.33268 -6.30891,6.01989 -0.70028,2.14639 2.72305,2.58465 6.07765,0.77808 1.76523,-0.95064 4.3281,-1.57074 5.69526,-1.37799 2.22749,0.31403 2.48575,0.81797 2.48575,4.85044 v 4.5 l -13.27019,0.27917 c -11.32999,0.23835 -13.35866,0.0486 -13.87528,-1.29766 z m 37.94402,-0.44103 c -4.97305,-3.03224 -6.70894,-7.28497 -6.75153,-16.54048 -0.0287,-6.24154 0.40168,-8.74447 1.95808,-11.3869 5.62851,-9.556 22.36129,-9.556 27.9898,0 1.5564,2.64243 1.98681,5.14536 1.95808,11.3869 -0.0611,13.28157 -4.55646,18.49252 -15.95298,18.49252 -4.19082,0 -6.96533,-0.58859 -9.20145,-1.95204 z m 11.50145,-6.24048 c 0.75899,-0.75899 1.2,-4.57279 1.2,-10.37756 0,-10.18551 -1.0977,-12.51089 -4.93608,-10.45665 -1.85723,0.99396 -2.06392,2.03239 -2.06392,10.36939 0,8.99541 0.80095,11.66482 3.5,11.66482 0.605,0 1.64,-0.54 2.3,-1.2 z m 18.90153,7.56819 c -0.38584,-0.38584 -0.70153,-1.92404 -0.70153,-3.41823 0,-1.89113 0.61831,-2.87839 2.03469,-3.24878 1.9108,-0.49969 2.01735,-1.18913 1.75,-11.32342 -0.27692,-10.49689 -0.35088,-10.80692 -2.71055,-11.36213 -1.33422,-0.31394 -2.58671,-1.05335 -2.78331,-1.64313 -0.72798,-2.18396 2.98579,-3.69063 10.2454,-4.15652 l 7.46377,-0.47899 v 14.09632 c 0,13.20957 0.12958,14.16567 2.05993,15.19876 1.45117,0.77665 1.96834,1.89527 1.75,3.78519 -0.30794,2.66553 -0.36799,2.68457 -9.3584,2.9676 -4.97667,0.15667 -9.36417,-0.0308 -9.75,-0.41667 z m 28.65149,-0.89061 c -0.91101,-2.37406 1.26777,-8.95237 5.73133,-17.30436 2.15361,-4.02974 3.91565,-7.74224 3.91565,-8.25 0,-0.50777 -1.39213,-0.92322 -3.09362,-0.92322 -2.27833,0 -3.23498,0.54056 -3.63001,2.05115 -0.44918,1.71767 -1.20621,2.00218 -4.65638,1.75 l -4.11999,-0.30115 -0.2999,-5.75 -0.29991,-5.75 h 14.54991 14.5499 v 2.71266 c 0,1.49197 -1.78046,6.32947 -3.95658,10.75 -2.17612,4.42054 -4.80772,11.18734 -5.84801,15.03734 l -1.89144,7 -5.16317,0.30265 c -4.03509,0.23652 -5.29963,-0.053 -5.78778,-1.32507 z"
       id="path3532-9"
       inkscape:connector-curvature="0"
       transform="matrix(0.70388827,0,0,0.70388827,-378.3849,-211.83797)" /><path
       style="fill:#f12403;fill-opacity:1;stroke-width:0.23076521"
       d="m 77.604558,148.16935 c -0.24271,-0.17786 -0.30384,-0.76272 -0.25298,-2.42055 0.0642,-2.09272 0.0924,-2.19816 0.66214,-2.47061 0.63224,-0.30237 0.64712,-0.3466 2.66168,-7.91255 1.48147,-5.56388 2.57781,-9.27297 2.80938,-9.50453 0.27477,-0.27478 10.42487,-0.29285 10.68669,-0.019 0.14096,0.14743 2.05803,6.90099 3.35839,11.83121 0.59151,2.24265 1.43303,5.06864 1.5803,5.30694 0.0786,0.12728 0.28901,0.23142 0.46743,0.23142 0.17841,0 0.41657,0.18174 0.529212,0.40384 0.19154,0.37769 0.18612,4.37522 -0.006,4.56754 -0.219552,0.21955 -11.048552,0.17753 -11.269822,-0.0437 -0.14063,-0.14063 -0.2105,-1.1707 -0.17115,-2.52317 l 0.0665,-2.28553 0.6923,-0.12572 c 0.57095,-0.10369 0.6817,-0.22534 0.63186,-0.69408 -0.11696,-1.09993 -0.19554,-1.14529 -1.98453,-1.14529 -1.82925,0 -1.99343,0.10609 -1.99343,1.28809 0,0.43927 0.12106,0.55803 0.56879,0.55803 0.32617,0 0.67069,0.1904 0.80768,0.44637 0.27569,0.51513 0.31855,3.91709 0.0546,4.33243 -0.23027,0.36232 -9.42182,0.52843 -9.89883,0.1789 z m 11.33832,-10.47336 c 0.1422,-0.23009 -0.50783,-3.63697 -0.79386,-4.1607 -0.11787,-0.2158 -0.27612,0.1443 -0.45636,1.03845 -0.15175,0.75285 -0.35853,1.75311 -0.4595,2.22281 -0.10098,0.46969 -0.12654,0.91103 -0.0568,0.98075 0.20853,0.20853 1.62778,0.14321 1.76654,-0.0813 z m 29.095962,10.66689 c -0.75849,-0.0553 -1.45784,-0.22446 -1.55414,-0.37592 -0.26233,-0.41263 -0.21772,-3.8161 0.0567,-4.32894 0.13139,-0.2455 0.39323,-0.44636 0.58187,-0.44636 0.4714,0 0.58617,-0.32623 2.19207,-6.23066 2.65515,-9.76218 2.99242,-10.94361 3.17674,-11.12795 0.25508,-0.25507 10.42549,-0.27191 10.67971,-0.0177 0.11299,0.11299 0.86294,2.66073 1.25697,4.00247 1.18338,4.02954 2.97373,10.81486 3.32403,12.15274 0.18111,0.6919 0.43497,1.05761 0.88258,1.2717 0.60751,0.29057 0.63023,0.36909 0.68702,2.3749 0.0323,1.14092 -0.0375,2.22322 -0.15511,2.4051 -0.17724,0.27396 -1.15223,0.32289 -5.68217,0.28515 -3.00759,-0.025 -5.55986,-0.10212 -5.67172,-0.17124 -0.31648,-0.1956 -0.25114,-4.34293 0.0736,-4.66761 0.1523,-0.1523 0.51576,-0.27692 0.80767,-0.27692 0.58012,0 0.6592,-0.32443 0.30571,-1.25418 -0.21195,-0.55749 -0.31894,-0.59194 -1.83801,-0.59194 -1.35849,0 -1.65062,0.0704 -1.85183,0.44636 -0.42302,0.79043 -0.29598,1.39975 0.29188,1.39975 0.29192,0 0.65537,0.12462 0.80767,0.27692 0.31442,0.31442 0.39493,4.46898 0.0903,4.65728 -0.27036,0.1671 -6.83626,0.3355 -8.46148,0.21703 z m 10.03382,-10.74728 c 0.002,-0.64555 -0.79988,-4.09608 -0.95237,-4.09608 -0.17228,0 -0.59119,1.73477 -0.82196,3.40378 l -0.13561,0.98076 h 0.95443 c 0.60913,0 0.95482,-0.10435 0.9555,-0.28846 z m -72.74155,10.38443 c -0.177108,-0.51689 -0.01365,-4.35625 0.193718,-4.55255 0.111045,-0.10507 0.40958,-0.22849 0.663422,-0.27428 0.447794,-0.0808 0.461529,-0.26484 0.461529,-6.18496 v -6.10172 l -0.569208,-0.13437 c -0.667413,-0.15756 -0.926379,-1.02677 -0.894321,-3.00177 0.03718,-2.29077 -0.719027,-2.07689 7.343033,-2.07689 6.323379,0 7.273484,0.0485 8.514498,0.43477 2.874897,0.89476 4.610257,2.39221 5.881437,5.07513 0.69133,1.45909 0.72769,1.68027 0.80112,4.87454 0.0571,2.48315 -0.0186,3.75696 -0.29336,4.93924 -0.86415,3.71792 -3.06958,5.98817 -6.747968,6.94627 -1.776462,0.46271 -15.197795,0.51217 -15.3539,0.0566 z m 12.459432,-5.14761 c 0.505374,-0.35398 0.512879,-0.43898 0.512879,-5.80865 0,-6.30921 0.0048,-6.29344 -1.881887,-6.29344 h -1.118062 l -0.02401,3.86532 c -0.01328,2.12592 -0.05572,4.64415 -0.09447,5.59606 -0.03875,0.9519 -0.01494,2.01631 0.05286,2.36534 0.110879,0.57062 0.219927,0.6346 1.081555,0.6346 0.527041,0 1.189048,-0.16165 1.471127,-0.35923 z m 34.254418,2.95913 0.0655,-2.48451 0.86536,-0.0716 0.86538,-0.0716 v -6.23207 -6.23206 l -0.63461,0.073 c -0.54099,0.0623 -0.64502,0.19217 -0.70521,0.8807 -0.10071,1.15222 -0.5442,1.38459 -2.642462,1.38459 -2.79544,0 -2.70988,0.12003 -2.70988,-3.80212 0,-1.944 0.0948,-3.38296 0.22836,-3.46549 0.1256,-0.0776 5.025432,-0.13674 10.888552,-0.13137 8.31413,0.008 10.70085,0.0738 10.84483,0.30059 0.10155,0.15994 0.18621,1.65933 0.18816,3.33197 0.004,3.81074 0.037,3.76642 -2.76565,3.76642 -2.33682,0 -2.76919,-0.23678 -2.76919,-1.51646 0,-0.72621 -0.0572,-0.7912 -0.69606,-0.7912 h -0.69608 l 0.0614,6.17297 0.0614,6.17297 0.73281,0.071 c 1.11492,0.10808 1.25423,0.44429 1.17997,2.84799 l -0.0666,2.15782 -6.18081,0.0615 -6.18082,0.0615 z"
       id="path3538-62-0"
       inkscape:connector-curvature="0"
       sodipodi:nodetypes="cccsscccscccccccsssscccccccccccccssscacccccccssscscccccsccscccccscssscsccccccssccscsccccccccscsscccssssccccccccc" /><path
       style="fill:#ffffff;filter:url(#filter390-4-21);fill-opacity:1"
       d="m 372.81713,471.74189 c 0,-1.89254 0.45,-3.7191 1,-4.05902 1.36799,-0.84547 1.29764,-20.80236 -0.0782,-22.17818 -0.593,-0.593 -0.9305,-2.3705 -0.75,-3.95 l 0.3282,-2.87182 8.74318,-0.28883 c 4.80875,-0.15886 9.5534,0.14478 10.54366,0.67475 0.99026,0.52997 2.59984,3.49945 3.57683,6.59883 0.98044,3.11031 2.27706,5.46834 2.89384,5.26275 0.61462,-0.20488 1.97092,-2.93279 3.014,-6.06203 2.20552,-6.61657 2.84468,-6.92051 13.6355,-6.48409 8.91216,0.36045 10.68744,1.92202 7.84299,6.89881 -2.36403,4.13622 -2.48679,19.40288 -0.18247,22.69275 0.86214,1.23088 1.42464,3.24351 1.25,4.47251 -0.3002,2.11257 -0.78153,2.23455 -8.81753,2.23455 -8.036,0 -8.51733,-0.12198 -8.81753,-2.23455 -0.17464,-1.229 0.38786,-3.24163 1.25,-4.47251 1.67713,-2.39443 2.10548,-10.39561 0.67722,-12.6497 -1.09347,-1.72572 -1.27958,-1.36808 -4.60895,8.85676 -3.21727,9.88055 -3.93618,11 -7.06417,11 -2.85202,0 -3.1323,-0.44533 -6.92305,-11 -1.67904,-4.675 -3.49396,-8.5 -4.03316,-8.5 -1.71839,0 -1.70482,9.16526 0.0185,12.4978 0.88231,1.70619 1.32568,3.97967 0.98528,5.05218 -0.53522,1.68632 -1.5564,1.95002 -7.55153,1.95002 h -6.93261 z m 54.70631,2.81396 c -1.17685,-1.17685 -0.79348,-5.3071 0.71083,-7.65816 0.77942,-1.21815 2.87251,-7.61482 4.6513,-14.21482 1.77879,-6.6 3.67118,-12.5625 4.20531,-13.25 1.38177,-1.77854 14.16211,-1.67128 15.9674,0.134 0.7612,0.7612 2.85123,6.90224 4.64452,13.64674 1.79329,6.74451 3.93733,13.29569 4.76455,14.55818 0.82722,1.2625 1.35683,3.33397 1.17691,4.60326 -0.31238,2.20376 -0.71039,2.30782 -8.82713,2.30782 -8.21058,0 -8.51155,-0.0817 -8.83911,-2.39924 -0.18651,-1.31958 0.2427,-3.48635 0.95379,-4.81504 1.08281,-2.02325 1.05667,-2.56523 -0.16089,-3.33544 -2.16435,-1.36915 -4.54981,-1.14197 -5.96936,0.56848 -1.0297,1.24071 -0.94587,1.86637 0.45792,3.41753 0.9451,1.04433 1.5697,2.94839 1.38801,4.23124 -0.30569,2.15831 -0.85631,2.3541 -7.37405,2.62212 -3.87403,0.1593 -7.36153,-0.0282 -7.75,-0.41667 z m 17.79369,-19.37298 c 0,-1.83333 -0.52151,-3.50717 -1.15891,-3.71964 -1.32599,-0.44199 -2.82924,5.12078 -1.82355,6.74803 1.26251,2.04277 2.98246,0.29633 2.98246,-3.02839 z m 21.25,19.42507 c -1.22986,-1.24364 -0.85321,-4.90636 0.7182,-6.98394 2.10641,-2.78493 2.1315,-19.69853 0.0318,-21.44113 -1.9943,-1.65512 -1.9394,-6.61741 0.0818,-7.39301 2.4912,-0.95596 15.60814,-0.70885 21.47968,0.40467 8.90863,1.68948 12.95633,7.23813 12.91657,17.70622 -0.0285,7.51505 -2.74764,13.57456 -7.14946,15.93258 -2.51227,1.34581 -6.27148,1.87506 -15.32858,2.15806 -6.6,0.20623 -12.3375,0.0337 -12.75,-0.38345 z m 19.31574,-7.46025 c 1.68975,-0.90433 1.93426,-2.1594 1.93426,-9.92858 0,-6.75156 -0.37845,-9.27184 -1.57143,-10.46481 -1.88603,-1.88603 -2.64711,-1.95289 -4.22857,-0.37143 -1.62796,1.62796 -1.62796,18.97204 0,20.6 1.45492,1.45492 1.45514,1.45493 3.86574,0.16482 z"
       id="path3536-7-7"
       inkscape:connector-curvature="0"
       transform="matrix(0.64869415,0,0,0.64869415,-186.39558,-139.85712)"
       sodipodi:nodetypes="sccccssccscsccsccsssssccscsscsccscsssccscccssccscccccccscccscssc" /><path
       sodipodi:nodetypes="cccssscsccccscscsccccsscscsssssscscsccscsccscccsscccccccsssccc"
       style="fill:#0b1414;fill-opacity:1;stroke:none;filter:url(#filter422-2-9)"
       d="m 616.17166,473.66438 c -0.9968,-2.59762 0.36684,-9.62891 2.40386,-12.39493 1.04767,-1.42262 4.23063,-4.33731 7.07323,-6.4771 6.23755,-4.69534 6.89449,-7.60948 1.71543,-7.60948 -1.89912,0 -4.60102,0.5231 -6.00422,1.16244 -3.13774,1.42965 -3.57366,1.02661 -4.23677,-3.91725 l -0.52578,-3.91999 5.92546,-1.6626 c 7.37352,-2.0689 9.22584,-2.0739 14.31244,-0.0387 6.10629,2.44325 8.64467,8.75577 5.67213,14.10563 -0.68135,1.22626 -3.89438,4.37626 -7.14006,7 -3.24569,2.62373 -6.0847,5.33268 -6.30891,6.01989 -0.70028,2.14639 2.72305,2.58465 6.07765,0.77808 1.76523,-0.95064 4.3281,-1.57074 5.69526,-1.37799 2.22749,0.31403 2.48575,0.81797 2.48575,4.85044 v 4.5 l -13.27019,0.27917 c -11.32999,0.23835 -13.35866,0.0486 -13.87528,-1.29766 z m 37.94402,-0.44103 c -4.97305,-3.03224 -6.70894,-7.28497 -6.75153,-16.54048 -0.0287,-6.24154 0.40168,-8.74447 1.95808,-11.3869 5.62851,-9.556 22.36129,-9.556 27.9898,0 1.5564,2.64243 1.98681,5.14536 1.95808,11.3869 -0.0611,13.28157 -4.55646,18.49252 -15.95298,18.49252 -4.19082,0 -6.96533,-0.58859 -9.20145,-1.95204 z m 11.50145,-6.24048 c 0.75899,-0.75899 1.2,-4.57279 1.2,-10.37756 0,-10.18551 -1.0977,-12.51089 -4.93608,-10.45665 -1.85723,0.99396 -2.06392,2.03239 -2.06392,10.36939 0,8.99541 0.80095,11.66482 3.5,11.66482 0.605,0 1.64,-0.54 2.3,-1.2 z m 18.90153,7.56819 c -0.38584,-0.38584 -0.70153,-1.92404 -0.70153,-3.41823 0,-1.89113 0.61831,-2.87839 2.03469,-3.24878 1.9108,-0.49969 2.01735,-1.18913 1.75,-11.32342 -0.27692,-10.49689 -0.35088,-10.80692 -2.71055,-11.36213 -1.33422,-0.31394 -2.58671,-1.05335 -2.78331,-1.64313 -0.72798,-2.18396 2.98579,-3.69063 10.2454,-4.15652 l 7.46377,-0.47899 v 14.09632 c 0,13.20957 0.12958,14.16567 2.05993,15.19876 1.45117,0.77665 1.96834,1.89527 1.75,3.78519 -0.30794,2.66553 -0.36799,2.68457 -9.3584,2.9676 -4.97667,0.15667 -9.36417,-0.0308 -9.75,-0.41667 z m 28.65149,-0.89061 c -0.91101,-2.37406 1.26777,-8.95237 5.73133,-17.30436 2.15361,-4.02974 3.91565,-7.74224 3.91565,-8.25 0,-0.50777 -1.39213,-0.92322 -3.09362,-0.92322 -2.27833,0 -3.23498,0.54056 -3.63001,2.05115 -0.44918,1.71767 -1.20621,2.00218 -4.65638,1.75 l -4.11999,-0.30115 -0.2999,-5.75 -0.29991,-5.75 h 14.54991 14.5499 v 2.71266 c 0,1.49197 -1.78046,6.32947 -3.95658,10.75 -2.17612,4.42054 -4.80772,11.18734 -5.84801,15.03734 l -1.89144,7 -5.16317,0.30265 c -4.03509,0.23652 -5.29963,-0.053 -5.78778,-1.32507 z"
       id="path3532-3"
       inkscape:connector-curvature="0"
       transform="matrix(0.70388827,0,0,0.70388827,-378.3849,-149.393)" /></g><g
     inkscape:groupmode="layer"
     id="layer2"
     inkscape:label="mad"><path
       style="fill:#ffffff;filter:url(#filter390-4);fill-opacity:1"
       d="m 372.81713,471.74189 c 0,-1.89254 0.45,-3.7191 1,-4.05902 1.36799,-0.84547 1.29764,-20.80236 -0.0782,-22.17818 -0.593,-0.593 -0.9305,-2.3705 -0.75,-3.95 l 0.3282,-2.87182 8.74318,-0.28883 c 4.80875,-0.15886 9.5534,0.14478 10.54366,0.67475 0.99026,0.52997 2.59984,3.49945 3.57683,6.59883 0.98044,3.11031 2.27706,5.46834 2.89384,5.26275 0.61462,-0.20488 1.97092,-2.93279 3.014,-6.06203 2.20552,-6.61657 2.84468,-6.92051 13.6355,-6.48409 8.91216,0.36045 10.68744,1.92202 7.84299,6.89881 -2.36403,4.13622 -2.48679,19.40288 -0.18247,22.69275 0.86214,1.23088 1.42464,3.24351 1.25,4.47251 -0.3002,2.11257 -0.78153,2.23455 -8.81753,2.23455 -8.036,0 -8.51733,-0.12198 -8.81753,-2.23455 -0.17464,-1.229 0.38786,-3.24163 1.25,-4.47251 1.67713,-2.39443 2.10548,-10.39561 0.67722,-12.6497 -1.09347,-1.72572 -1.27958,-1.36808 -4.60895,8.85676 -3.21727,9.88055 -3.93618,11 -7.06417,11 -2.85202,0 -3.1323,-0.44533 -6.92305,-11 -1.67904,-4.675 -3.49396,-8.5 -4.03316,-8.5 -1.71839,0 -1.70482,9.16526 0.0185,12.4978 0.88231,1.70619 1.32568,3.97967 0.98528,5.05218 -0.53522,1.68632 -1.5564,1.95002 -7.55153,1.95002 h -6.93261 z m 54.70631,2.81396 c -1.17685,-1.17685 -0.79348,-5.3071 0.71083,-7.65816 0.77942,-1.21815 2.87251,-7.61482 4.6513,-14.21482 1.77879,-6.6 3.67118,-12.5625 4.20531,-13.25 1.38177,-1.77854 14.16211,-1.67128 15.9674,0.134 0.7612,0.7612 2.85123,6.90224 4.64452,13.64674 1.79329,6.74451 3.93733,13.29569 4.76455,14.55818 0.82722,1.2625 1.35683,3.33397 1.17691,4.60326 -0.31238,2.20376 -0.71039,2.30782 -8.82713,2.30782 -8.21058,0 -8.51155,-0.0817 -8.83911,-2.39924 -0.18651,-1.31958 0.2427,-3.48635 0.95379,-4.81504 1.08281,-2.02325 1.05667,-2.56523 -0.16089,-3.33544 -2.16435,-1.36915 -4.54981,-1.14197 -5.96936,0.56848 -1.0297,1.24071 -0.94587,1.86637 0.45792,3.41753 0.9451,1.04433 1.5697,2.94839 1.38801,4.23124 -0.30569,2.15831 -0.85631,2.3541 -7.37405,2.62212 -3.87403,0.1593 -7.36153,-0.0282 -7.75,-0.41667 z m 17.79369,-19.37298 c 0,-1.83333 -0.52151,-3.50717 -1.15891,-3.71964 -1.32599,-0.44199 -2.82924,5.12078 -1.82355,6.74803 1.26251,2.04277 2.98246,0.29633 2.98246,-3.02839 z m 21.25,19.42507 c -1.22986,-1.24364 -0.85321,-4.90636 0.7182,-6.98394 2.10641,-2.78493 2.1315,-19.69853 0.0318,-21.44113 -1.9943,-1.65512 -1.9394,-6.61741 0.0818,-7.39301 2.4912,-0.95596 15.60814,-0.70885 21.47968,0.40467 8.90863,1.68948 12.95633,7.23813 12.91657,17.70622 -0.0285,7.51505 -2.74764,13.57456 -7.14946,15.93258 -2.51227,1.34581 -6.27148,1.87506 -15.32858,2.15806 -6.6,0.20623 -12.3375,0.0337 -12.75,-0.38345 z m 19.31574,-7.46025 c 1.68975,-0.90433 1.93426,-2.1594 1.93426,-9.92858 0,-6.75156 -0.37845,-9.27184 -1.57143,-10.46481 -1.88603,-1.88603 -2.64711,-1.95289 -4.22857,-0.37143 -1.62796,1.62796 -1.62796,18.97204 0,20.6 1.45492,1.45492 1.45514,1.45493 3.86574,0.16482 z"
       id="path3536-7"
       inkscape:connector-curvature="0"
       transform="matrix(0.64869415,0,0,0.64869415,-186.39558,-265.55438)"
       sodipodi:nodetypes="sccccssccscsccsccsssssccscsscsccscsssccscccssccscccccccscccscssc" /></g><g
     inkscape:groupmode="layer"
     id="layer3"
     inkscape:label="2017"><path
       sodipodi:nodetypes="ccscssscccccsccsccssccscssscsssccccccsscsccscsccssscscscccccc"
       style="fill:none;filter:url(#filter422-2)"
       d="m 614.80239,475.66511 c -1.83671,-2.2131 -0.5272,-11.0657 2.23472,-15.10722 1.25401,-1.835 4.41524,-4.96673 7.02495,-6.95939 5.25075,-4.00924 5.45987,-5.81539 0.49159,-4.24579 -7.42267,2.34501 -7.50465,2.32779 -8.65572,-1.81764 -2.1068,-7.58737 -1.55889,-8.37681 7.57664,-10.91671 9.68722,-2.69329 18.02093,0.15715 20.94916,7.1654 l 1.48625,3.5571 2.20358,-3.23705 c 3.37433,-4.95689 6.78467,-6.97061 12.86848,-7.59851 7.07364,-0.73007 11.91387,0.86432 15.69401,5.16966 l 2.95888,3.36999 0.60291,-2.40218 c 0.89351,-3.56003 4.11436,-4.76049 13.05443,-4.86558 l 8.02486,-0.0943 0.27937,13.92642 c 0.25164,12.54447 0.47492,14.06339 2.25,15.3067 2.68256,1.87894 2.7059,7.80301 0.0364,9.2317 -2.73929,1.46602 -19.36623,1.33469 -20.86574,-0.16482 -0.66,-0.66 -1.2,-2.87968 -1.2,-4.93261 0,-2.85436 0.47059,-3.88197 2,-4.36739 1.81378,-0.57567 2,-1.51303 2,-10.06739 -3e-5,-7.47611 -0.29419,-9.43261 -1.41824,-9.43261 -0.78002,0 -2.07712,-0.25285 -2.88246,-0.56188 -1.23473,-0.47382 -1.32142,0.19233 -0.55306,4.25 2.80819,14.82985 -4.5345,26.31188 -16.82627,26.31188 -6.98994,0 -11.22294,-1.84572 -15.14479,-6.60361 l -3.17521,-3.85208 v 4.02785 c 0,2.21531 -0.54,4.56784 -1.2,5.22784 -0.81635,0.81635 -5.57279,1.2 -14.87756,1.2 -11.00902,0 -13.92331,-0.29612 -14.93718,-1.51776 z m 20.10349,-11.08918 c 1.00663,-1.21291 2.53177,-1.49181 6.21996,-1.13742 l 4.88632,0.46951 -0.59751,-2.98757 c -0.32864,-1.64317 -0.59752,-3.88369 -0.59752,-4.97894 0,-1.72507 -0.52389,-1.51806 -3.91761,1.54796 -2.15469,1.94663 -5.07969,4.30075 -6.5,5.23137 -2.54067,1.66471 -3.42574,3.46203 -1.70483,3.46203 0.48265,0 1.47769,-0.72312 2.21119,-1.60694 z m 29.69878,-7.64306 c -0.16501,-5.30832 -0.71366,-9.25 -1.28753,-9.25 -0.57387,0 -1.12252,3.94168 -1.28753,9.25 -0.24472,7.87315 -0.0531,9.25 1.28753,9.25 1.34061,0 1.53225,-1.37685 1.28753,-9.25 z m 47.31722,19.3359 c -2.22554,-1.40921 -0.76031,-8.2393 3.81154,-17.7673 4.52665,-9.43378 4.48853,-9.3186 3.08371,-9.3186 -0.55,0 -1,0.62686 -1,1.39301 0,0.76616 -0.7118,1.66616 -1.58179,2 -2.69164,1.03288 -8.95586,0.66934 -10.21821,-0.59301 -1.3439,-1.3439 -1.61503,-11.59775 -0.35899,-13.57699 0.61311,-0.96612 4.56515,-1.20955 16.23468,-1 l 15.42431,0.27699 0.32419,3.39525 c 0.23405,2.45116 -0.92142,5.9269 -4.15547,12.5 -2.46382,5.00761 -5.04085,11.80475 -5.72675,15.10475 -0.68589,3.3 -1.93944,6.5625 -2.78565,7.25 -1.7564,1.42696 -10.95461,1.66369 -13.05157,0.3359 z"
       id="path3538"
       inkscape:connector-curvature="0"
       transform="matrix(0.7016901,0,0,0.7016901,-376.06964,-274.45296)" /><path
       sodipodi:nodetypes="cccssscsccccscscsccccsscscsssssscscsccscsccscccsscccccccsssccc"
       style="fill:#0b1414;fill-opacity:1;stroke:none;filter:url(#filter422-2)"
       d="m 616.17166,473.66438 c -0.9968,-2.59762 0.36684,-9.62891 2.40386,-12.39493 1.04767,-1.42262 4.23063,-4.33731 7.07323,-6.4771 6.23755,-4.69534 6.89449,-7.60948 1.71543,-7.60948 -1.89912,0 -4.60102,0.5231 -6.00422,1.16244 -3.13774,1.42965 -3.57366,1.02661 -4.23677,-3.91725 l -0.52578,-3.91999 5.92546,-1.6626 c 7.37352,-2.0689 9.22584,-2.0739 14.31244,-0.0387 6.10629,2.44325 8.64467,8.75577 5.67213,14.10563 -0.68135,1.22626 -3.89438,4.37626 -7.14006,7 -3.24569,2.62373 -6.0847,5.33268 -6.30891,6.01989 -0.70028,2.14639 2.72305,2.58465 6.07765,0.77808 1.76523,-0.95064 4.3281,-1.57074 5.69526,-1.37799 2.22749,0.31403 2.48575,0.81797 2.48575,4.85044 v 4.5 l -13.27019,0.27917 c -11.32999,0.23835 -13.35866,0.0486 -13.87528,-1.29766 z m 37.94402,-0.44103 c -4.97305,-3.03224 -6.70894,-7.28497 -6.75153,-16.54048 -0.0287,-6.24154 0.40168,-8.74447 1.95808,-11.3869 5.62851,-9.556 22.36129,-9.556 27.9898,0 1.5564,2.64243 1.98681,5.14536 1.95808,11.3869 -0.0611,13.28157 -4.55646,18.49252 -15.95298,18.49252 -4.19082,0 -6.96533,-0.58859 -9.20145,-1.95204 z m 11.50145,-6.24048 c 0.75899,-0.75899 1.2,-4.57279 1.2,-10.37756 0,-10.18551 -1.0977,-12.51089 -4.93608,-10.45665 -1.85723,0.99396 -2.06392,2.03239 -2.06392,10.36939 0,8.99541 0.80095,11.66482 3.5,11.66482 0.605,0 1.64,-0.54 2.3,-1.2 z m 18.90153,7.56819 c -0.38584,-0.38584 -0.70153,-1.92404 -0.70153,-3.41823 0,-1.89113 0.61831,-2.87839 2.03469,-3.24878 1.9108,-0.49969 2.01735,-1.18913 1.75,-11.32342 -0.27692,-10.49689 -0.35088,-10.80692 -2.71055,-11.36213 -1.33422,-0.31394 -2.58671,-1.05335 -2.78331,-1.64313 -0.72798,-2.18396 2.98579,-3.69063 10.2454,-4.15652 l 7.46377,-0.47899 v 14.09632 c 0,13.20957 0.12958,14.16567 2.05993,15.19876 1.45117,0.77665 1.96834,1.89527 1.75,3.78519 -0.30794,2.66553 -0.36799,2.68457 -9.3584,2.9676 -4.97667,0.15667 -9.36417,-0.0308 -9.75,-0.41667 z m 28.65149,-0.89061 c -0.91101,-2.37406 1.26777,-8.95237 5.73133,-17.30436 2.15361,-4.02974 3.91565,-7.74224 3.91565,-8.25 0,-0.50777 -1.39213,-0.92322 -3.09362,-0.92322 -2.27833,0 -3.23498,0.54056 -3.63001,2.05115 -0.44918,1.71767 -1.20621,2.00218 -4.65638,1.75 l -4.11999,-0.30115 -0.2999,-5.75 -0.29991,-5.75 h 14.54991 14.5499 v 2.71266 c 0,1.49197 -1.78046,6.32947 -3.95658,10.75 -2.17612,4.42054 -4.80772,11.18734 -5.84801,15.03734 l -1.89144,7 -5.16317,0.30265 c -4.03509,0.23652 -5.29963,-0.053 -5.78778,-1.32507 z"
       id="path3532"
       inkscape:connector-curvature="0"
       transform="matrix(0.70388827,0,0,0.70388827,-378.3849,-275.09026)" /></g></svg>